<svg xmlns="http://www.w3.org/2000/svg" xmlns:xlink="http://www.w3.org/1999/xlink" width="150" zoomAndPan="magnify" viewBox="0 0 112.5 112.499997" height="150" preserveAspectRatio="xMidYMid meet" version="1.0"><defs><clipPath id="3e3428ccca"><path d="M 9.101562 0 L 100.941406 0 L 100.941406 112 L 9.101562 112 Z M 9.101562 0 " clip-rule="nonzero"/></clipPath><clipPath id="e567c8e9a4"><path d="M 40.398438 70 L 50 70 L 50 80 L 40.398438 80 Z M 40.398438 70 " clip-rule="nonzero"/></clipPath><clipPath id="4dca442335"><path d="M 65 65.09375 L 71.757812 65.09375 L 71.757812 70 L 65 70 Z M 65 65.09375 " clip-rule="nonzero"/></clipPath><clipPath id="6519ebe4d3"><path d="M 40.398438 65.09375 L 48 65.09375 L 48 70 L 40.398438 70 Z M 40.398438 65.09375 " clip-rule="nonzero"/></clipPath></defs><path fill="#832729" d="M 45.527344 59.375 C 48.84375 59.457031 51.933594 61.03125 53.929688 63.667969 C 54.355469 64.238281 55.171875 64.355469 55.753906 63.914062 C 55.839844 63.84375 55.917969 63.765625 56 63.667969 C 59.628906 58.902344 66.417969 57.988281 71.183594 61.621094 C 75.53125 64.925781 76.734375 70.960938 73.976562 75.683594 C 69.460938 83.386719 62.867188 89.675781 54.953125 93.820312 C 47.042969 89.675781 40.449219 83.386719 35.933594 75.683594 C 32.921875 70.527344 34.652344 63.882812 39.820312 60.863281 C 41.542969 59.847656 43.519531 59.335938 45.527344 59.375 Z M 45.457031 56.875 C 38.097656 56.789062 32.054688 62.683594 31.957031 70.042969 C 31.925781 72.476562 32.566406 74.855469 33.796875 76.953125 C 38.660156 85.25 45.8125 91.96875 54.382812 96.320312 C 54.757812 96.507812 55.191406 96.507812 55.554688 96.320312 C 64.136719 91.96875 71.28125 85.25 76.140625 76.953125 C 79.882812 70.605469 77.757812 62.4375 71.398438 58.707031 C 66.054688 55.558594 59.234375 56.523438 54.964844 61.03125 C 52.484375 58.421875 49.058594 56.925781 45.457031 56.875 " fill-opacity="1" fill-rule="nonzero"/><g clip-path="url(#3e3428ccca)"><path fill="#832729" d="M 38.785156 36.425781 C 40.585938 36.417969 42.0625 37.875 42.0625 39.683594 C 42.0625 39.714844 42.0625 39.742188 42.0625 39.773438 C 42.082031 41.585938 40.625 43.058594 38.816406 43.070312 C 37.003906 43.089844 35.539062 41.632812 35.519531 39.824219 C 35.519531 39.8125 35.519531 39.792969 35.519531 39.773438 C 35.480469 37.972656 36.90625 36.46875 38.707031 36.425781 C 38.738281 36.425781 38.757812 36.425781 38.785156 36.425781 Z M 71.164062 36.425781 C 72.964844 36.425781 74.429688 37.894531 74.421875 39.703125 C 74.421875 39.734375 74.421875 39.761719 74.421875 39.792969 C 74.5 41.59375 73.09375 43.121094 71.28125 43.1875 C 69.480469 43.265625 67.953125 41.859375 67.886719 40.050781 C 67.875 39.960938 67.875 39.882812 67.886719 39.792969 C 67.835938 37.980469 69.253906 36.476562 71.054688 36.425781 C 71.09375 36.425781 71.125 36.425781 71.164062 36.425781 Z M 23.699219 29.078125 L 37.515625 29.078125 L 37.515625 34.175781 C 34.417969 34.871094 32.457031 37.960938 33.167969 41.074219 C 33.875 44.183594 36.964844 46.121094 40.066406 45.421875 C 43.175781 44.714844 45.125 41.625 44.414062 38.515625 C 43.921875 36.359375 42.230469 34.664062 40.066406 34.175781 L 40.066406 29.078125 L 69.882812 29.078125 L 69.882812 34.175781 C 66.773438 34.871094 64.824219 37.960938 65.535156 41.074219 C 66.242188 44.183594 69.332031 46.121094 72.433594 45.421875 C 75.53125 44.714844 77.480469 41.625 76.78125 38.515625 C 76.289062 36.359375 74.597656 34.664062 72.433594 34.175781 L 72.433594 29.078125 L 86.25 29.078125 C 88.21875 29.078125 89.871094 30.5625 90.085938 32.511719 L 98.066406 104.636719 C 98.304688 106.761719 96.777344 108.667969 94.652344 108.90625 C 94.503906 108.925781 94.367188 108.933594 94.230469 108.933594 L 15.71875 108.933594 C 13.582031 108.925781 11.863281 107.195312 11.863281 105.058594 C 11.863281 104.921875 11.871094 104.78125 11.882812 104.636719 L 19.851562 32.511719 C 20.078125 30.5625 21.730469 29.078125 23.699219 29.078125 Z M 54.542969 2.96875 C 62.769531 2.730469 69.628906 9.199219 69.875 17.433594 C 69.882812 17.570312 69.882812 17.71875 69.882812 17.867188 L 69.882812 26.578125 L 40.066406 26.578125 L 40.066406 17.867188 C 40.066406 9.808594 46.480469 3.203125 54.542969 2.96875 Z M 54.296875 0.585938 C 44.984375 0.949219 37.605469 8.558594 37.507812 17.867188 L 37.507812 26.578125 L 23.699219 26.578125 C 20.453125 26.578125 17.726562 29.015625 17.371094 32.246094 L 9.390625 104.371094 C 9.007812 107.851562 11.515625 111.003906 15.011719 111.386719 C 15.246094 111.414062 15.484375 111.425781 15.71875 111.425781 L 94.21875 111.425781 C 97.734375 111.425781 100.585938 108.582031 100.585938 105.066406 C 100.585938 104.832031 100.566406 104.59375 100.546875 104.371094 L 92.558594 32.246094 C 92.203125 29.015625 89.488281 26.585938 86.25 26.578125 L 72.421875 26.578125 L 72.421875 17.867188 C 72.335938 8.222656 64.441406 0.488281 54.796875 0.578125 C 54.628906 0.578125 54.464844 0.585938 54.296875 0.585938 " fill-opacity="1" fill-rule="nonzero"/></g><path fill="#832729" d="M 44.441406 70.800781 C 43.351562 70.988281 42.453125 71.792969 41.875 72.847656 C 41.015625 74.414062 40.96875 76.265625 42.308594 77.574219 C 43.152344 78.398438 44.378906 78.796875 45.554688 78.6875 C 46.6875 78.582031 47.773438 78.015625 48.507812 77.148438 C 48.691406 76.929688 48.855469 76.695312 48.964844 76.429688 C 49.0625 76.1875 49.113281 75.925781 49.140625 75.664062 C 49.351562 73.664062 47.859375 71.605469 45.984375 70.949219 C 45.441406 70.757812 44.925781 70.71875 44.441406 70.800781 Z M 44.441406 70.800781 " fill-opacity="1" fill-rule="nonzero"/><g clip-path="url(#e567c8e9a4)"><path fill="#832729" d="M 45.167969 79.140625 C 43.980469 79.140625 42.824219 78.6875 42.003906 77.886719 C 40.644531 76.558594 40.449219 74.546875 41.492188 72.636719 C 42.171875 71.394531 43.21875 70.570312 44.367188 70.375 C 44.945312 70.277344 45.539062 70.332031 46.128906 70.539062 C 48.285156 71.296875 49.800781 73.570312 49.574219 75.714844 C 49.539062 76.054688 49.472656 76.34375 49.367188 76.597656 C 49.25 76.875 49.078125 77.148438 48.839844 77.429688 C 48.027344 78.386719 46.84375 79.003906 45.59375 79.121094 C 45.449219 79.132812 45.308594 79.140625 45.164062 79.140625 Z M 44.515625 71.230469 C 43.632812 71.382812 42.808594 72.046875 42.257812 73.054688 C 41.394531 74.628906 41.527344 76.203125 42.613281 77.265625 C 43.351562 77.984375 44.433594 78.355469 45.515625 78.253906 C 46.539062 78.160156 47.511719 77.65625 48.175781 76.867188 C 48.355469 76.65625 48.484375 76.460938 48.5625 76.265625 C 48.636719 76.089844 48.683594 75.878906 48.710938 75.625 C 48.894531 73.894531 47.605469 71.980469 45.84375 71.363281 C 45.390625 71.203125 44.945312 71.160156 44.515625 71.230469 Z M 44.445312 70.804688 Z M 44.445312 70.804688 " fill-opacity="1" fill-rule="nonzero"/></g><path fill="#ffffff" d="M 43.742188 71.785156 C 42.609375 72.042969 41.644531 73.921875 42.402344 74.878906 C 42.980469 75.601562 44.003906 75.726562 44.808594 75.316406 C 46.472656 74.472656 45.804688 71.480469 43.835938 71.765625 C 43.804688 71.773438 43.773438 71.777344 43.742188 71.785156 Z M 43.742188 71.785156 " fill-opacity="1" fill-rule="nonzero"/><path fill="#832729" d="M 43.851562 75.839844 C 43.203125 75.839844 42.582031 75.566406 42.175781 75.058594 C 41.808594 74.597656 41.742188 73.925781 41.992188 73.21875 C 42.296875 72.351562 42.972656 71.664062 43.679688 71.503906 C 43.714844 71.492188 43.753906 71.484375 43.792969 71.480469 C 44.769531 71.339844 45.605469 71.894531 45.921875 72.898438 C 46.21875 73.828125 45.976562 75.050781 44.941406 75.578125 C 44.589844 75.753906 44.21875 75.839844 43.851562 75.839844 Z M 43.808594 72.070312 C 43.304688 72.183594 42.769531 72.746094 42.539062 73.410156 C 42.359375 73.925781 42.390625 74.394531 42.628906 74.699219 C 43.089844 75.277344 43.949219 75.429688 44.675781 75.058594 C 45.425781 74.679688 45.59375 73.773438 45.371094 73.074219 C 45.191406 72.5 44.699219 71.933594 43.878906 72.054688 C 43.855469 72.058594 43.832031 72.0625 43.808594 72.066406 Z M 43.808594 72.070312 " fill-opacity="1" fill-rule="nonzero"/><path fill="#ffffff" d="M 46.464844 76.421875 C 46.589844 76.433594 46.71875 76.425781 46.835938 76.398438 C 47.214844 76.3125 47.539062 75.988281 47.664062 75.625 C 47.78125 75.28125 47.597656 74.929688 47.277344 74.765625 C 47.015625 74.632812 46.695312 74.644531 46.429688 74.773438 C 46.023438 74.972656 45.570312 75.609375 45.828125 76.066406 C 45.957031 76.292969 46.207031 76.398438 46.464844 76.421875 Z M 46.464844 76.421875 " fill-opacity="1" fill-rule="nonzero"/><path fill="#832729" d="M 46.570312 76.71875 C 46.527344 76.71875 46.484375 76.714844 46.4375 76.710938 C 46.054688 76.679688 45.738281 76.496094 45.578125 76.210938 C 45.453125 75.988281 45.429688 75.722656 45.515625 75.445312 C 45.632812 75.066406 45.957031 74.683594 46.304688 74.511719 C 46.660156 74.339844 47.074219 74.335938 47.410156 74.507812 C 47.878906 74.746094 48.101562 75.253906 47.941406 75.71875 C 47.777344 76.1875 47.363281 76.574219 46.902344 76.679688 C 46.796875 76.703125 46.683594 76.71875 46.570312 76.71875 Z M 46.871094 74.960938 C 46.765625 74.960938 46.660156 74.984375 46.558594 75.035156 C 46.378906 75.121094 46.148438 75.363281 46.070312 75.613281 C 46.03125 75.738281 46.035156 75.839844 46.082031 75.925781 C 46.175781 76.089844 46.398438 76.125 46.492188 76.132812 C 46.585938 76.140625 46.683594 76.132812 46.773438 76.113281 C 47.039062 76.054688 47.292969 75.8125 47.390625 75.527344 C 47.464844 75.316406 47.324219 75.113281 47.148438 75.023438 C 47.0625 74.980469 46.96875 74.960938 46.871094 74.960938 Z M 46.871094 74.960938 " fill-opacity="1" fill-rule="nonzero"/><path fill="#832729" d="M 66.726562 70.828125 C 65.578125 70.59375 64.332031 71.003906 63.570312 71.980469 C 63.089844 72.59375 62.8125 73.34375 62.671875 74.109375 C 62.394531 75.632812 62.765625 77.425781 64.078125 78.257812 C 65.820312 79.359375 69.304688 78.375 69.78125 76.226562 C 69.925781 75.578125 69.84375 74.898438 69.683594 74.253906 C 69.414062 73.171875 68.894531 72.117188 68.019531 71.429688 C 67.628906 71.121094 67.183594 70.925781 66.726562 70.828125 Z M 66.726562 70.828125 " fill-opacity="1" fill-rule="nonzero"/><path fill="#832729" d="M 65.863281 79.152344 C 65.105469 79.152344 64.398438 78.972656 63.84375 78.625 C 62.230469 77.601562 61.976562 75.511719 62.246094 74.03125 C 62.414062 73.109375 62.746094 72.328125 63.226562 71.710938 C 64.066406 70.640625 65.476562 70.125 66.8125 70.402344 C 67.359375 70.515625 67.855469 70.746094 68.289062 71.089844 C 69.144531 71.761719 69.773438 72.820312 70.105469 74.148438 C 70.3125 74.980469 70.347656 75.691406 70.207031 76.320312 C 69.980469 77.34375 69.152344 78.222656 67.929688 78.730469 C 67.253906 79.011719 66.539062 79.148438 65.863281 79.148438 Z M 66.085938 71.199219 C 65.25 71.199219 64.4375 71.582031 63.914062 72.25 C 63.519531 72.753906 63.246094 73.40625 63.101562 74.1875 C 62.863281 75.496094 63.144531 77.152344 64.308594 77.890625 C 65.109375 78.394531 66.429688 78.410156 67.59375 77.925781 C 68.550781 77.53125 69.191406 76.875 69.359375 76.132812 C 69.46875 75.636719 69.4375 75.058594 69.261719 74.359375 C 69.0625 73.566406 68.640625 72.472656 67.753906 71.773438 C 67.425781 71.515625 67.050781 71.34375 66.640625 71.257812 C 66.457031 71.21875 66.273438 71.199219 66.085938 71.199219 Z M 66.085938 71.199219 " fill-opacity="1" fill-rule="nonzero"/><path fill="#ffffff" d="M 64.171875 71.882812 C 63.132812 72.398438 62.632812 74.453125 63.59375 75.203125 C 64.324219 75.773438 65.351562 75.652344 66.035156 75.070312 C 67.457031 73.855469 66.109375 71.105469 64.261719 71.84375 C 64.230469 71.855469 64.203125 71.871094 64.171875 71.882812 Z M 64.171875 71.882812 " fill-opacity="1" fill-rule="nonzero"/><path fill="#832729" d="M 64.695312 75.863281 C 64.234375 75.863281 63.785156 75.722656 63.414062 75.433594 C 62.953125 75.074219 62.730469 74.433594 62.804688 73.6875 C 62.898438 72.773438 63.394531 71.945312 64.042969 71.625 C 64.078125 71.609375 64.113281 71.589844 64.152344 71.578125 C 65.066406 71.210938 66.007812 71.554688 66.554688 72.457031 C 67.058594 73.292969 67.109375 74.535156 66.222656 75.289062 C 65.777344 75.671875 65.230469 75.863281 64.695312 75.863281 Z M 64.875 72.011719 C 64.714844 72.011719 64.546875 72.042969 64.367188 72.117188 C 64.34375 72.125 64.324219 72.132812 64.300781 72.144531 C 63.839844 72.375 63.453125 73.046875 63.382812 73.746094 C 63.328125 74.292969 63.46875 74.738281 63.773438 74.976562 C 64.355469 75.429688 65.226562 75.378906 65.847656 74.851562 C 66.484375 74.304688 66.4375 73.386719 66.058594 72.757812 C 65.816406 72.363281 65.40625 72.011719 64.875 72.011719 Z M 64.171875 71.886719 Z M 64.171875 71.886719 " fill-opacity="1" fill-rule="nonzero"/><path fill="#ffffff" d="M 67.863281 75.980469 C 67.945312 75.882812 68.011719 75.769531 68.054688 75.660156 C 68.199219 75.300781 68.113281 74.847656 67.886719 74.539062 C 67.671875 74.246094 67.273438 74.199219 66.957031 74.375 C 66.703125 74.511719 66.527344 74.785156 66.488281 75.074219 C 66.421875 75.523438 66.691406 76.261719 67.214844 76.304688 C 67.472656 76.324219 67.703125 76.179688 67.867188 75.980469 Z M 67.863281 75.980469 " fill-opacity="1" fill-rule="nonzero"/><path fill="#832729" d="M 67.261719 76.59375 C 67.238281 76.59375 67.214844 76.59375 67.191406 76.589844 C 66.933594 76.570312 66.703125 76.4375 66.519531 76.210938 C 66.273438 75.898438 66.144531 75.414062 66.199219 75.03125 C 66.257812 74.640625 66.488281 74.296875 66.820312 74.117188 C 67.28125 73.867188 67.828125 73.96875 68.121094 74.363281 C 68.414062 74.765625 68.5 75.328125 68.324219 75.765625 C 68.269531 75.90625 68.1875 76.042969 68.089844 76.164062 C 67.863281 76.441406 67.5625 76.59375 67.261719 76.59375 Z M 67.34375 74.5625 C 67.257812 74.5625 67.171875 74.585938 67.097656 74.625 C 66.929688 74.71875 66.804688 74.90625 66.773438 75.117188 C 66.742188 75.3125 66.8125 75.640625 66.976562 75.847656 C 67.054688 75.949219 67.144531 76.003906 67.238281 76.011719 C 67.425781 76.027344 67.582031 75.863281 67.640625 75.792969 C 67.703125 75.722656 67.75 75.636719 67.785156 75.550781 C 67.886719 75.296875 67.832031 74.949219 67.652344 74.710938 C 67.574219 74.605469 67.460938 74.5625 67.34375 74.5625 Z M 67.863281 75.980469 Z M 67.863281 75.980469 " fill-opacity="1" fill-rule="nonzero"/><g clip-path="url(#4dca442335)"><path fill="#832729" d="M 71.074219 69.257812 C 71.042969 69.257812 71.011719 69.253906 70.980469 69.246094 C 68.90625 68.78125 66.980469 67.539062 65.695312 65.847656 C 65.550781 65.65625 65.589844 65.382812 65.777344 65.238281 C 65.972656 65.089844 66.242188 65.128906 66.390625 65.320312 C 67.550781 66.851562 69.296875 67.976562 71.171875 68.398438 C 71.40625 68.449219 71.554688 68.683594 71.5 68.917969 C 71.453125 69.121094 71.273438 69.257812 71.074219 69.257812 Z M 71.074219 69.257812 " fill-opacity="1" fill-rule="nonzero"/></g><g clip-path="url(#6519ebe4d3)"><path fill="#832729" d="M 41.226562 69.257812 C 41.050781 69.257812 40.886719 69.152344 40.820312 68.976562 C 40.738281 68.75 40.851562 68.5 41.078125 68.417969 C 43.027344 67.695312 44.808594 66.632812 46.371094 65.257812 C 46.550781 65.097656 46.828125 65.117188 46.984375 65.296875 C 47.144531 65.476562 47.125 65.75 46.945312 65.910156 C 45.304688 67.355469 43.429688 68.472656 41.378906 69.230469 C 41.328125 69.25 41.277344 69.257812 41.226562 69.257812 Z M 41.226562 69.257812 " fill-opacity="1" fill-rule="nonzero"/></g><path fill="#832729" d="M 52.953125 79.988281 C 52.785156 79.988281 52.628906 79.890625 52.554688 79.730469 C 52.460938 79.507812 52.558594 79.253906 52.78125 79.15625 C 54.527344 78.386719 56.5 78.238281 58.34375 78.734375 C 58.574219 78.796875 58.710938 79.035156 58.652344 79.265625 C 58.589844 79.5 58.347656 79.636719 58.117188 79.574219 C 56.464844 79.128906 54.695312 79.261719 53.128906 79.953125 C 53.074219 79.976562 53.015625 79.988281 52.957031 79.988281 Z M 52.953125 79.988281 " fill-opacity="1" fill-rule="nonzero"/></svg>