<svg xmlns="http://www.w3.org/2000/svg" xmlns:xlink="http://www.w3.org/1999/xlink" width="500" zoomAndPan="magnify" viewBox="0 0 375 374.999991" height="500" preserveAspectRatio="xMidYMid meet" version="1.0"><defs><clipPath id="f5b9ac1801"><path d="M 7.5 37.5 L 367.5 37.5 L 367.5 362 L 7.5 362 Z M 7.5 37.5 " clip-rule="nonzero"/></clipPath><clipPath id="166269b520"><path d="M 127.980469 224.316406 L 149.730469 224.316406 L 149.730469 246 L 127.980469 246 Z M 127.980469 224.316406 " clip-rule="nonzero"/></clipPath><clipPath id="7e9735ec3f"><path d="M 223.988281 224.316406 L 245.738281 224.316406 L 245.738281 246 L 223.988281 246 Z M 223.988281 224.316406 " clip-rule="nonzero"/></clipPath><clipPath id="992184d5d3"><path d="M 136.539062 276.421875 L 238.539062 276.421875 L 238.539062 309 L 136.539062 309 Z M 136.539062 276.421875 " clip-rule="nonzero"/></clipPath></defs><g clip-path="url(#f5b9ac1801)"><path fill="#832729" d="M 358.246094 158.25 L 229.605469 158.25 L 229.605469 114.792969 L 358.246094 114.792969 Z M 347.441406 352.703125 L 27.597656 352.703125 L 27.597656 167.496094 L 145.433594 167.496094 L 145.433594 194.683594 C 145.433594 196.429688 146.417969 198.027344 147.976562 198.8125 C 148.636719 199.144531 149.347656 199.308594 150.058594 199.308594 C 151.027344 199.308594 151.996094 199 152.808594 198.398438 L 187.519531 172.699219 L 222.230469 198.398438 C 223.636719 199.4375 225.503906 199.601562 227.0625 198.8125 C 228.621094 198.027344 229.605469 196.429688 229.605469 194.683594 L 229.605469 167.496094 L 347.441406 167.496094 Z M 16.792969 114.792969 L 145.433594 114.792969 L 145.433594 158.25 L 16.792969 158.25 Z M 71.359375 46.742188 L 162.457031 46.742188 L 146.023438 105.546875 L 22.074219 105.546875 Z M 202.984375 46.742188 L 219.417969 105.546875 L 155.625 105.546875 L 172.054688 46.742188 Z M 154.679688 114.792969 L 220.359375 114.792969 L 220.359375 185.507812 L 190.269531 163.234375 C 189.453125 162.628906 188.488281 162.324219 187.519531 162.324219 C 186.554688 162.324219 185.585938 162.628906 184.769531 163.234375 L 154.679688 185.507812 Z M 352.964844 105.546875 L 229.015625 105.546875 L 212.582031 46.742188 L 303.679688 46.742188 Z M 366.414062 107.203125 L 309.378906 39.148438 C 308.5 38.101562 307.207031 37.496094 305.839844 37.496094 L 69.203125 37.496094 C 67.835938 37.496094 66.539062 38.101562 65.660156 39.148438 L 8.628906 107.203125 L 8.644531 107.214844 C 7.96875 108.015625 7.546875 109.039062 7.546875 110.167969 L 7.546875 162.871094 C 7.546875 165.425781 9.617188 167.496094 12.171875 167.496094 L 18.351562 167.496094 L 18.351562 357.328125 C 18.351562 359.878906 20.421875 361.949219 22.976562 361.949219 L 352.066406 361.949219 C 354.617188 361.949219 356.6875 359.878906 356.6875 357.328125 L 356.6875 167.496094 L 362.871094 167.496094 C 365.421875 167.496094 367.492188 165.425781 367.492188 162.871094 L 367.492188 110.167969 C 367.492188 109.039062 367.070312 108.015625 366.398438 107.214844 L 366.414062 107.203125 " fill-opacity="1" fill-rule="nonzero"/></g><g clip-path="url(#166269b520)"><path fill="#832729" d="M 149.414062 235.035156 C 149.414062 235.738281 149.34375 236.433594 149.207031 237.125 C 149.070312 237.8125 148.867188 238.484375 148.597656 239.132812 C 148.328125 239.785156 148 240.402344 147.609375 240.988281 C 147.214844 241.574219 146.773438 242.113281 146.273438 242.609375 C 145.777344 243.109375 145.234375 243.554688 144.652344 243.945312 C 144.066406 244.335938 143.449219 244.664062 142.796875 244.933594 C 142.148438 245.203125 141.476562 245.40625 140.789062 245.542969 C 140.097656 245.679688 139.402344 245.75 138.695312 245.75 C 137.992188 245.75 137.296875 245.679688 136.605469 245.542969 C 135.914062 245.40625 135.246094 245.203125 134.597656 244.933594 C 133.945312 244.664062 133.328125 244.335938 132.742188 243.945312 C 132.15625 243.554688 131.617188 243.109375 131.117188 242.609375 C 130.621094 242.113281 130.175781 241.574219 129.785156 240.988281 C 129.394531 240.402344 129.066406 239.785156 128.796875 239.132812 C 128.527344 238.484375 128.324219 237.8125 128.1875 237.125 C 128.046875 236.433594 127.980469 235.738281 127.980469 235.035156 C 127.980469 234.328125 128.046875 233.632812 128.1875 232.941406 C 128.324219 232.253906 128.527344 231.582031 128.796875 230.933594 C 129.066406 230.28125 129.394531 229.664062 129.785156 229.078125 C 130.175781 228.496094 130.621094 227.953125 131.117188 227.457031 C 131.617188 226.957031 132.15625 226.511719 132.742188 226.121094 C 133.328125 225.730469 133.945312 225.402344 134.597656 225.132812 C 135.246094 224.863281 135.914062 224.660156 136.605469 224.523438 C 137.296875 224.386719 137.992188 224.316406 138.695312 224.316406 C 139.402344 224.316406 140.097656 224.386719 140.789062 224.523438 C 141.476562 224.660156 142.148438 224.863281 142.796875 225.132812 C 143.449219 225.402344 144.066406 225.730469 144.652344 226.121094 C 145.234375 226.511719 145.777344 226.957031 146.273438 227.457031 C 146.773438 227.953125 147.214844 228.496094 147.609375 229.078125 C 148 229.664062 148.328125 230.28125 148.597656 230.933594 C 148.867188 231.582031 149.070312 232.253906 149.207031 232.941406 C 149.34375 233.632812 149.414062 234.328125 149.414062 235.035156 Z M 149.414062 235.035156 " fill-opacity="1" fill-rule="nonzero"/></g><g clip-path="url(#7e9735ec3f)"><path fill="#832729" d="M 245.421875 235.035156 C 245.421875 235.738281 245.355469 236.433594 245.21875 237.125 C 245.078125 237.8125 244.875 238.484375 244.605469 239.132812 C 244.335938 239.785156 244.007812 240.402344 243.617188 240.988281 C 243.226562 241.574219 242.78125 242.113281 242.285156 242.609375 C 241.785156 243.109375 241.246094 243.554688 240.660156 243.945312 C 240.074219 244.335938 239.457031 244.664062 238.808594 244.933594 C 238.15625 245.203125 237.488281 245.40625 236.796875 245.542969 C 236.105469 245.679688 235.410156 245.75 234.707031 245.75 C 234.003906 245.75 233.304688 245.679688 232.617188 245.542969 C 231.925781 245.40625 231.253906 245.203125 230.605469 244.933594 C 229.953125 244.664062 229.335938 244.335938 228.753906 243.945312 C 228.167969 243.554688 227.625 243.109375 227.128906 242.609375 C 226.628906 242.113281 226.1875 241.574219 225.796875 240.988281 C 225.40625 240.402344 225.074219 239.785156 224.804688 239.132812 C 224.535156 238.484375 224.332031 237.8125 224.195312 237.125 C 224.058594 236.433594 223.988281 235.738281 223.988281 235.035156 C 223.988281 234.328125 224.058594 233.632812 224.195312 232.941406 C 224.332031 232.253906 224.535156 231.582031 224.804688 230.933594 C 225.074219 230.28125 225.40625 229.664062 225.796875 229.078125 C 226.1875 228.496094 226.628906 227.953125 227.128906 227.457031 C 227.625 226.957031 228.167969 226.511719 228.753906 226.121094 C 229.335938 225.730469 229.953125 225.402344 230.605469 225.132812 C 231.253906 224.863281 231.925781 224.660156 232.617188 224.523438 C 233.304688 224.386719 234.003906 224.316406 234.707031 224.316406 C 235.410156 224.316406 236.105469 224.386719 236.796875 224.523438 C 237.488281 224.660156 238.15625 224.863281 238.808594 225.132812 C 239.457031 225.402344 240.074219 225.730469 240.660156 226.121094 C 241.246094 226.511719 241.785156 226.957031 242.285156 227.457031 C 242.78125 227.953125 243.226562 228.496094 243.617188 229.078125 C 244.007812 229.664062 244.335938 230.28125 244.605469 230.933594 C 244.875 231.582031 245.078125 232.253906 245.21875 232.941406 C 245.355469 233.632812 245.421875 234.328125 245.421875 235.035156 Z M 245.421875 235.035156 " fill-opacity="1" fill-rule="nonzero"/></g><g clip-path="url(#992184d5d3)"><path fill="#832729" d="M 145.730469 308.296875 C 144.726562 308.296875 143.558594 307.964844 142.722656 307.296875 C 140.71875 305.625 140.550781 302.785156 142.222656 300.78125 C 158.59375 281.398438 185.328125 280.730469 188.335938 280.730469 C 216.738281 280.730469 232.777344 298.773438 234.449219 300.78125 C 236.117188 302.785156 235.785156 305.625 233.945312 307.296875 C 231.941406 308.96875 229.101562 308.632812 227.429688 306.792969 C 225.925781 305.125 212.5625 290.085938 188.335938 290.085938 C 187.332031 290.085938 163.105469 290.253906 149.238281 306.792969 C 148.402344 307.628906 147.066406 308.296875 145.730469 308.296875 Z M 151.578125 220.917969 C 143.222656 220.917969 136.539062 227.601562 136.539062 235.953125 C 136.539062 244.308594 143.222656 250.992188 151.578125 250.992188 C 159.929688 250.992188 166.613281 244.308594 166.613281 235.953125 C 166.613281 227.601562 159.929688 220.917969 151.578125 220.917969 Z M 223.421875 220.917969 C 215.066406 220.917969 208.382812 227.601562 208.382812 235.953125 C 208.382812 244.308594 215.066406 250.992188 223.421875 250.992188 C 231.773438 250.992188 238.457031 244.308594 238.457031 235.953125 C 238.457031 227.601562 231.773438 220.917969 223.421875 220.917969 Z M 223.421875 220.917969 " fill-opacity="1" fill-rule="nonzero"/></g></svg>