<svg xmlns="http://www.w3.org/2000/svg" xmlns:xlink="http://www.w3.org/1999/xlink" width="150" zoomAndPan="magnify" viewBox="0 0 112.5 112.499997" height="150" preserveAspectRatio="xMidYMid meet" version="1.0"><defs><clipPath id="6a58f0fbdb"><path d="M 0 0 L 112.003906 0 L 112.003906 112.003906 L 0 112.003906 Z M 0 0 " clip-rule="nonzero"/></clipPath><clipPath id="d86867b120"><path d="M 41 94 L 94 94 L 94 112.003906 L 41 112.003906 Z M 41 94 " clip-rule="nonzero"/></clipPath></defs><g clip-path="url(#6a58f0fbdb)"><path fill="#ffffff" d="M 0 0 L 112.003906 0 L 112.003906 112.003906 L 0 112.003906 Z M 0 0 " fill-opacity="1" fill-rule="nonzero"/><path fill="#ffffff" d="M 0 0 L 112.003906 0 L 112.003906 112.003906 L 0 112.003906 Z M 0 0 " fill-opacity="1" fill-rule="nonzero"/></g><path fill="#832729" d="M 63.984375 42.839844 C 70.15625 42.839844 76.230469 45.53125 81.421875 50.492188 C 82.792969 51.691406 82.886719 53.796875 81.632812 55.109375 C 80.371094 56.429688 78.269531 56.429688 77.015625 55.117188 C 72.78125 51.058594 68.332031 49.222656 63.984375 49.222656 C 59.648438 49.222656 55.207031 51.058594 50.972656 55.117188 C 50.363281 55.71875 49.527344 56.046875 48.671875 56.023438 C 45.8125 55.953125 44.476562 52.445312 46.574219 50.492188 C 51.753906 45.53125 57.820312 42.839844 63.984375 42.839844 Z M 77.277344 30.242188 C 79.828125 30.242188 81.902344 32.320312 81.902344 34.871094 C 81.902344 37.429688 79.828125 39.496094 77.277344 39.496094 C 74.730469 39.496094 72.664062 37.429688 72.664062 34.871094 C 72.664062 32.320312 74.730469 30.242188 77.277344 30.242188 Z M 50.707031 30.242188 C 53.257812 30.242188 55.324219 32.320312 55.324219 34.871094 C 55.324219 37.429688 53.257812 39.496094 50.707031 39.496094 C 48.148438 39.496094 46.082031 37.429688 46.082031 34.871094 C 46.082031 32.320312 48.148438 30.242188 50.707031 30.242188 Z M 7.945312 -0.0351562 C 1.722656 0.140625 0.734375 9.527344 6.757812 11.164062 L 14.613281 13.941406 L 23.855469 62.140625 C 24.960938 67.910156 26.792969 73.128906 29.351562 77.621094 C 33.109375 84.234375 39.640625 89.117188 47.695312 89.117188 L 87.695312 89.117188 C 94.910156 89.246094 94.910156 77.695312 87.695312 77.824219 L 47.695312 77.824219 C 42 77.101562 39.640625 74.230469 37.550781 70.023438 L 90.347656 70.023438 C 95.191406 70.023438 97.894531 65.722656 99.089844 60.746094 L 110.640625 21.449219 C 111.257812 14.988281 107.835938 13.710938 101.847656 13.710938 L 25.996094 13.769531 L 23.960938 7.539062 C 23.410156 5.683594 22.003906 4.25 20.238281 3.75 Z M 7.945312 -0.0351562 " fill-opacity="1" fill-rule="nonzero"/><g clip-path="url(#d86867b120)"><path fill="#832729" d="M 84.53125 94.871094 C 79.808594 94.871094 75.976562 98.710938 75.976562 103.4375 C 75.976562 108.167969 79.808594 112.007812 84.53125 112.007812 C 89.253906 112.007812 93.085938 108.167969 93.085938 103.4375 C 93.085938 98.710938 89.253906 94.871094 84.53125 94.871094 Z M 50.421875 94.871094 C 45.695312 94.871094 41.863281 98.710938 41.863281 103.4375 C 41.863281 108.167969 45.695312 112.007812 50.421875 112.007812 C 55.148438 112.007812 58.972656 108.167969 58.972656 103.4375 C 58.972656 98.710938 55.148438 94.871094 50.421875 94.871094 Z M 50.421875 94.871094 " fill-opacity="1" fill-rule="nonzero"/></g></svg>