<svg xmlns="http://www.w3.org/2000/svg" xmlns:xlink="http://www.w3.org/1999/xlink" width="150" zoomAndPan="magnify" viewBox="0 0 112.5 112.499997" height="150" preserveAspectRatio="xMidYMid meet" version="1.0"><defs><clipPath id="dc57fca50b"><path d="M 20 93 L 32 93 L 32 104.230469 L 20 104.230469 Z M 20 93 " clip-rule="nonzero"/></clipPath><clipPath id="85066d2f48"><path d="M 65 93 L 76 93 L 76 104.230469 L 65 104.230469 Z M 65 93 " clip-rule="nonzero"/></clipPath><clipPath id="38dc0e8e47"><path d="M 36 93 L 48 93 L 48 104.230469 L 36 104.230469 Z M 36 93 " clip-rule="nonzero"/></clipPath><clipPath id="460e31671c"><path d="M 80 93 L 92 93 L 92 104.230469 L 80 104.230469 Z M 80 93 " clip-rule="nonzero"/></clipPath><clipPath id="9c2004dd79"><path d="M 3 102 L 86 102 L 86 104.230469 L 3 104.230469 Z M 3 102 " clip-rule="nonzero"/></clipPath><clipPath id="4d72cddbd0"><path d="M 85 7.910156 L 92 7.910156 L 92 17 L 85 17 Z M 85 7.910156 " clip-rule="nonzero"/></clipPath></defs><path fill="#f5f5f5" d="M 34.792969 38.628906 L 41.96875 82.25 L 92.277344 82.25 L 95.667969 45.167969 Z M 34.792969 38.628906 " fill-opacity="1" fill-rule="nonzero"/><path fill="#a9afc4" d="M 84.695312 52.394531 C 85.050781 52.425781 85.382812 52.523438 85.695312 52.6875 C 86.011719 52.855469 86.28125 53.074219 86.507812 53.347656 C 86.734375 53.621094 86.898438 53.925781 87.003906 54.265625 C 87.105469 54.605469 87.140625 54.953125 87.101562 55.304688 L 85.292969 73.257812 C 85.269531 73.476562 85.203125 73.683594 85.101562 73.878906 C 85 74.074219 84.863281 74.242188 84.695312 74.386719 C 84.527344 74.53125 84.339844 74.636719 84.128906 74.707031 C 83.921875 74.78125 83.707031 74.808594 83.484375 74.800781 C 83.265625 74.789062 83.054688 74.738281 82.855469 74.644531 C 82.652344 74.554688 82.476562 74.429688 82.324219 74.269531 C 82.171875 74.109375 82.050781 73.929688 81.96875 73.722656 C 81.886719 73.519531 81.84375 73.304688 81.839844 73.085938 L 81.804688 55.046875 C 81.800781 54.671875 81.878906 54.316406 82.027344 53.972656 C 82.175781 53.632812 82.390625 53.335938 82.664062 53.082031 C 82.941406 52.832031 83.253906 52.644531 83.609375 52.523438 C 83.960938 52.40625 84.324219 52.363281 84.695312 52.394531 Z M 84.695312 52.394531 " fill-opacity="1" fill-rule="nonzero"/><path fill="#5e6175" d="M 75.113281 98.84375 C 75.113281 99.140625 75.082031 99.433594 75.027344 99.722656 C 74.96875 100.011719 74.882812 100.292969 74.769531 100.570312 C 74.65625 100.84375 74.515625 101.101562 74.351562 101.347656 C 74.1875 101.59375 74 101.820312 73.792969 102.03125 C 73.582031 102.242188 73.355469 102.425781 73.109375 102.59375 C 72.863281 102.757812 72.601562 102.894531 72.328125 103.007812 C 72.054688 103.121094 71.773438 103.207031 71.480469 103.265625 C 71.191406 103.324219 70.898438 103.351562 70.601562 103.351562 C 70.304688 103.351562 70.011719 103.324219 69.722656 103.265625 C 69.433594 103.207031 69.152344 103.121094 68.878906 103.007812 C 68.601562 102.894531 68.34375 102.757812 68.097656 102.59375 C 67.851562 102.425781 67.625 102.242188 67.414062 102.03125 C 67.203125 101.820312 67.019531 101.59375 66.851562 101.347656 C 66.6875 101.101562 66.550781 100.84375 66.4375 100.570312 C 66.324219 100.292969 66.238281 100.011719 66.179688 99.722656 C 66.121094 99.433594 66.09375 99.140625 66.09375 98.84375 C 66.09375 98.546875 66.121094 98.253906 66.179688 97.964844 C 66.238281 97.671875 66.324219 97.390625 66.4375 97.117188 C 66.550781 96.84375 66.6875 96.582031 66.851562 96.335938 C 67.019531 96.089844 67.203125 95.863281 67.414062 95.652344 C 67.625 95.445312 67.851562 95.257812 68.097656 95.09375 C 68.34375 94.929688 68.601562 94.789062 68.878906 94.675781 C 69.152344 94.5625 69.433594 94.476562 69.722656 94.421875 C 70.011719 94.363281 70.304688 94.332031 70.601562 94.332031 C 70.898438 94.332031 71.191406 94.363281 71.480469 94.421875 C 71.773438 94.476562 72.054688 94.5625 72.328125 94.675781 C 72.601562 94.789062 72.863281 94.929688 73.109375 95.09375 C 73.355469 95.257812 73.582031 95.445312 73.792969 95.652344 C 74 95.863281 74.1875 96.089844 74.351562 96.335938 C 74.515625 96.582031 74.65625 96.84375 74.769531 97.117188 C 74.882812 97.390625 74.96875 97.671875 75.027344 97.964844 C 75.082031 98.253906 75.113281 98.546875 75.113281 98.84375 Z M 75.113281 98.84375 " fill-opacity="1" fill-rule="nonzero"/><path fill="#5e6175" d="M 30.714844 98.84375 C 30.714844 99.140625 30.683594 99.433594 30.625 99.722656 C 30.570312 100.011719 30.484375 100.292969 30.371094 100.570312 C 30.257812 100.84375 30.117188 101.101562 29.953125 101.347656 C 29.789062 101.59375 29.601562 101.820312 29.390625 102.03125 C 29.183594 102.242188 28.953125 102.425781 28.707031 102.59375 C 28.460938 102.757812 28.203125 102.894531 27.929688 103.007812 C 27.65625 103.121094 27.375 103.207031 27.082031 103.265625 C 26.792969 103.324219 26.5 103.351562 26.203125 103.351562 C 25.90625 103.351562 25.613281 103.324219 25.324219 103.265625 C 25.035156 103.207031 24.75 103.121094 24.476562 103.007812 C 24.203125 102.894531 23.945312 102.757812 23.699219 102.59375 C 23.453125 102.425781 23.222656 102.242188 23.015625 102.03125 C 22.804688 101.820312 22.617188 101.59375 22.453125 101.347656 C 22.289062 101.101562 22.152344 100.84375 22.039062 100.570312 C 21.925781 100.292969 21.839844 100.011719 21.78125 99.722656 C 21.722656 99.433594 21.695312 99.140625 21.695312 98.84375 C 21.695312 98.546875 21.722656 98.253906 21.78125 97.964844 C 21.839844 97.671875 21.925781 97.390625 22.039062 97.117188 C 22.152344 96.84375 22.289062 96.582031 22.453125 96.335938 C 22.617188 96.089844 22.804688 95.863281 23.015625 95.652344 C 23.222656 95.445312 23.453125 95.257812 23.699219 95.09375 C 23.945312 94.929688 24.203125 94.789062 24.476562 94.675781 C 24.75 94.5625 25.035156 94.476562 25.324219 94.421875 C 25.613281 94.363281 25.90625 94.332031 26.203125 94.332031 C 26.5 94.332031 26.792969 94.363281 27.082031 94.421875 C 27.375 94.476562 27.65625 94.5625 27.929688 94.675781 C 28.203125 94.789062 28.460938 94.929688 28.707031 95.09375 C 28.953125 95.257812 29.183594 95.445312 29.390625 95.652344 C 29.601562 95.863281 29.789062 96.089844 29.953125 96.335938 C 30.117188 96.582031 30.257812 96.84375 30.371094 97.117188 C 30.484375 97.390625 30.570312 97.671875 30.625 97.964844 C 30.683594 98.253906 30.714844 98.546875 30.714844 98.84375 Z M 30.714844 98.84375 " fill-opacity="1" fill-rule="nonzero"/><g clip-path="url(#dc57fca50b)"><path fill="#5e6175" d="M 26.203125 104.105469 C 25.859375 104.105469 25.515625 104.074219 25.175781 104.007812 C 24.835938 103.9375 24.507812 103.839844 24.1875 103.707031 C 23.867188 103.574219 23.566406 103.410156 23.277344 103.21875 C 22.988281 103.027344 22.722656 102.808594 22.480469 102.566406 C 22.234375 102.320312 22.015625 102.054688 21.824219 101.765625 C 21.632812 101.480469 21.46875 101.175781 21.335938 100.855469 C 21.207031 100.535156 21.105469 100.207031 21.039062 99.867188 C 20.96875 99.527344 20.9375 99.1875 20.9375 98.839844 C 20.9375 98.496094 20.96875 98.152344 21.039062 97.8125 C 21.105469 97.472656 21.207031 97.144531 21.335938 96.824219 C 21.46875 96.503906 21.632812 96.203125 21.824219 95.914062 C 22.015625 95.625 22.234375 95.359375 22.480469 95.117188 C 22.722656 94.871094 22.988281 94.652344 23.277344 94.460938 C 23.566406 94.269531 23.867188 94.105469 24.1875 93.972656 C 24.507812 93.84375 24.835938 93.742188 25.175781 93.675781 C 25.515625 93.605469 25.859375 93.574219 26.203125 93.574219 C 26.550781 93.574219 26.890625 93.605469 27.230469 93.675781 C 27.570312 93.742188 27.898438 93.84375 28.21875 93.972656 C 28.539062 94.105469 28.84375 94.269531 29.128906 94.460938 C 29.417969 94.652344 29.683594 94.871094 29.925781 95.117188 C 30.171875 95.359375 30.390625 95.625 30.582031 95.914062 C 30.773438 96.203125 30.9375 96.503906 31.070312 96.824219 C 31.203125 97.144531 31.300781 97.472656 31.367188 97.8125 C 31.4375 98.152344 31.46875 98.496094 31.46875 98.839844 C 31.46875 99.1875 31.4375 99.527344 31.367188 99.867188 C 31.300781 100.207031 31.203125 100.535156 31.070312 100.855469 C 30.9375 101.175781 30.773438 101.480469 30.582031 101.765625 C 30.390625 102.054688 30.171875 102.320312 29.925781 102.566406 C 29.683594 102.808594 29.417969 103.027344 29.128906 103.21875 C 28.84375 103.410156 28.539062 103.574219 28.21875 103.707031 C 27.898438 103.839844 27.570312 103.9375 27.230469 104.007812 C 26.890625 104.074219 26.550781 104.105469 26.203125 104.105469 Z M 26.203125 95.078125 C 25.703125 95.078125 25.226562 95.171875 24.765625 95.363281 C 24.304688 95.554688 23.894531 95.828125 23.542969 96.179688 C 23.191406 96.53125 22.917969 96.941406 22.726562 97.402344 C 22.535156 97.863281 22.441406 98.339844 22.441406 98.839844 C 22.441406 99.339844 22.535156 99.820312 22.726562 100.28125 C 22.917969 100.742188 23.191406 101.148438 23.542969 101.5 C 23.894531 101.851562 24.304688 102.125 24.765625 102.316406 C 25.226562 102.507812 25.703125 102.601562 26.203125 102.601562 C 26.703125 102.601562 27.183594 102.507812 27.644531 102.316406 C 28.105469 102.125 28.511719 101.851562 28.863281 101.5 C 29.214844 101.148438 29.488281 100.742188 29.679688 100.28125 C 29.871094 99.820312 29.964844 99.339844 29.964844 98.839844 C 29.964844 98.34375 29.867188 97.863281 29.675781 97.402344 C 29.484375 96.941406 29.214844 96.535156 28.859375 96.183594 C 28.507812 95.832031 28.101562 95.5625 27.640625 95.371094 C 27.179688 95.179688 26.703125 95.085938 26.203125 95.085938 Z M 26.203125 95.078125 " fill-opacity="1" fill-rule="nonzero"/></g><g clip-path="url(#85066d2f48)"><path fill="#5e6175" d="M 70.609375 104.105469 C 70.265625 104.105469 69.921875 104.074219 69.582031 104.007812 C 69.242188 103.9375 68.914062 103.839844 68.59375 103.707031 C 68.273438 103.574219 67.972656 103.410156 67.683594 103.21875 C 67.398438 103.027344 67.128906 102.808594 66.886719 102.566406 C 66.640625 102.320312 66.421875 102.054688 66.230469 101.765625 C 66.039062 101.480469 65.875 101.175781 65.746094 100.855469 C 65.613281 100.535156 65.511719 100.207031 65.445312 99.867188 C 65.378906 99.527344 65.34375 99.1875 65.34375 98.839844 C 65.34375 98.496094 65.378906 98.152344 65.445312 97.8125 C 65.511719 97.472656 65.613281 97.144531 65.746094 96.824219 C 65.875 96.503906 66.039062 96.203125 66.230469 95.914062 C 66.421875 95.625 66.640625 95.359375 66.886719 95.117188 C 67.128906 94.871094 67.398438 94.652344 67.683594 94.460938 C 67.972656 94.269531 68.273438 94.105469 68.59375 93.972656 C 68.914062 93.84375 69.242188 93.742188 69.582031 93.675781 C 69.921875 93.605469 70.265625 93.574219 70.609375 93.574219 C 70.957031 93.574219 71.296875 93.605469 71.636719 93.675781 C 71.976562 93.742188 72.304688 93.84375 72.625 93.972656 C 72.945312 94.105469 73.25 94.269531 73.535156 94.460938 C 73.824219 94.652344 74.089844 94.871094 74.335938 95.117188 C 74.578125 95.359375 74.796875 95.625 74.988281 95.914062 C 75.179688 96.203125 75.34375 96.503906 75.476562 96.824219 C 75.609375 97.144531 75.707031 97.472656 75.777344 97.8125 C 75.84375 98.152344 75.878906 98.496094 75.878906 98.839844 C 75.878906 99.1875 75.84375 99.527344 75.777344 99.867188 C 75.707031 100.207031 75.609375 100.535156 75.476562 100.855469 C 75.34375 101.175781 75.179688 101.480469 74.988281 101.765625 C 74.796875 102.054688 74.578125 102.320312 74.335938 102.566406 C 74.089844 102.808594 73.824219 103.027344 73.535156 103.21875 C 73.25 103.410156 72.945312 103.574219 72.625 103.707031 C 72.304688 103.839844 71.976562 103.9375 71.636719 104.007812 C 71.296875 104.074219 70.957031 104.105469 70.609375 104.105469 Z M 70.609375 95.078125 C 70.113281 95.078125 69.632812 95.171875 69.171875 95.363281 C 68.710938 95.554688 68.304688 95.828125 67.949219 96.179688 C 67.597656 96.53125 67.324219 96.941406 67.132812 97.402344 C 66.945312 97.863281 66.847656 98.339844 66.847656 98.839844 C 66.847656 99.339844 66.945312 99.820312 67.132812 100.28125 C 67.324219 100.742188 67.597656 101.148438 67.949219 101.5 C 68.304688 101.851562 68.710938 102.125 69.171875 102.316406 C 69.632812 102.507812 70.113281 102.601562 70.609375 102.601562 C 71.109375 102.601562 71.589844 102.507812 72.050781 102.316406 C 72.511719 102.125 72.917969 101.851562 73.269531 101.5 C 73.625 101.148438 73.894531 100.742188 74.085938 100.28125 C 74.277344 99.820312 74.371094 99.339844 74.371094 98.839844 C 74.371094 98.34375 74.273438 97.863281 74.082031 97.402344 C 73.890625 96.941406 73.621094 96.535156 73.269531 96.183594 C 72.914062 95.832031 72.507812 95.5625 72.046875 95.371094 C 71.585938 95.179688 71.109375 95.085938 70.609375 95.085938 Z M 70.609375 95.078125 " fill-opacity="1" fill-rule="nonzero"/></g><path fill="#5e6175" d="M 28.4375 24.359375 L 31.632812 21.164062 L 32.695312 22.230469 L 29.503906 25.421875 Z M 28.4375 24.359375 " fill-opacity="1" fill-rule="nonzero"/><path fill="#5e6175" d="M 24.496094 18.011719 L 26 18.011719 L 26 22.527344 L 24.496094 22.527344 Z M 24.496094 18.011719 " fill-opacity="1" fill-rule="nonzero"/><path fill="#5e6175" d="M 31.460938 27.589844 L 35.976562 27.589844 L 35.976562 29.09375 L 31.460938 29.09375 Z M 31.460938 27.589844 " fill-opacity="1" fill-rule="nonzero"/><path fill="#f5f5f5" d="M 34.792969 38.628906 L 15.171875 38.628906 L 26.945312 82.25 L 41.96875 82.25 Z M 34.792969 38.628906 " fill-opacity="1" fill-rule="nonzero"/><path fill="#5e6175" d="M 92.964844 83.003906 L 41.328125 83.003906 L 33.890625 37.777344 L 96.484375 44.496094 Z M 42.609375 81.496094 L 91.589844 81.496094 L 94.851562 45.835938 L 35.695312 39.484375 Z M 42.609375 81.496094 " fill-opacity="1" fill-rule="nonzero"/><path fill="#5e6175" d="M 42.855469 83.003906 L 26.367188 83.003906 L 14.179688 37.875 L 35.421875 37.875 Z M 27.523438 81.496094 L 41.082031 81.496094 L 34.152344 39.378906 L 16.15625 39.378906 Z M 27.523438 81.496094 " fill-opacity="1" fill-rule="nonzero"/><path fill="#5e6175" d="M 36.535156 39.378906 L 14.851562 39.378906 L 5.300781 29.429688 L 27.148438 29.429688 Z M 15.496094 37.875 L 33.050781 37.875 L 26.496094 30.933594 L 8.832031 30.933594 Z M 15.496094 37.875 " fill-opacity="1" fill-rule="nonzero"/><path fill="#5e6175" d="M 24.984375 32.75 L 2.714844 32.75 C 2.375 32.75 2.042969 32.6875 1.726562 32.554688 C 1.414062 32.425781 1.132812 32.238281 0.890625 31.996094 C 0.648438 31.753906 0.460938 31.476562 0.332031 31.160156 C 0.199219 30.84375 0.136719 30.511719 0.136719 30.171875 C 0.136719 29.828125 0.199219 29.5 0.332031 29.183594 C 0.460938 28.867188 0.648438 28.589844 0.890625 28.347656 C 1.132812 28.105469 1.414062 27.917969 1.726562 27.785156 C 2.042969 27.65625 2.375 27.589844 2.714844 27.589844 L 24.984375 27.589844 C 25.328125 27.589844 25.65625 27.65625 25.972656 27.785156 C 26.289062 27.917969 26.566406 28.105469 26.808594 28.347656 C 27.050781 28.589844 27.238281 28.867188 27.367188 29.183594 C 27.5 29.5 27.566406 29.828125 27.566406 30.171875 C 27.566406 30.511719 27.5 30.84375 27.367188 31.160156 C 27.238281 31.476562 27.050781 31.753906 26.808594 31.996094 C 26.566406 32.238281 26.289062 32.425781 25.972656 32.554688 C 25.65625 32.6875 25.328125 32.75 24.984375 32.75 Z M 2.714844 29.09375 C 2.574219 29.09375 2.4375 29.121094 2.304688 29.175781 C 2.171875 29.230469 2.054688 29.308594 1.957031 29.410156 C 1.855469 29.511719 1.777344 29.628906 1.722656 29.757812 C 1.667969 29.890625 1.640625 30.027344 1.640625 30.171875 C 1.640625 30.3125 1.667969 30.449219 1.722656 30.582031 C 1.777344 30.714844 1.855469 30.832031 1.957031 30.933594 C 2.054688 31.03125 2.171875 31.109375 2.304688 31.164062 C 2.4375 31.21875 2.574219 31.246094 2.714844 31.246094 L 24.984375 31.246094 C 25.128906 31.246094 25.265625 31.21875 25.394531 31.164062 C 25.527344 31.109375 25.644531 31.03125 25.746094 30.933594 C 25.847656 30.832031 25.925781 30.714844 25.980469 30.582031 C 26.035156 30.449219 26.0625 30.3125 26.0625 30.171875 C 26.0625 30.027344 26.035156 29.890625 25.980469 29.757812 C 25.925781 29.628906 25.847656 29.511719 25.746094 29.410156 C 25.644531 29.308594 25.527344 29.230469 25.394531 29.175781 C 25.265625 29.121094 25.128906 29.09375 24.984375 29.09375 Z M 2.714844 29.09375 " fill-opacity="1" fill-rule="nonzero"/><path fill="#5e6175" d="M 24.984375 28.34375 L 2.714844 28.34375 C 2.472656 28.34375 2.242188 28.390625 2.015625 28.480469 C 1.792969 28.574219 1.59375 28.707031 1.421875 28.878906 C 1.25 29.050781 1.121094 29.246094 1.027344 29.472656 C 0.933594 29.695312 0.886719 29.929688 0.886719 30.171875 C 0.886719 30.414062 0.933594 30.648438 1.027344 30.871094 C 1.121094 31.09375 1.25 31.292969 1.421875 31.464844 C 1.59375 31.636719 1.792969 31.765625 2.015625 31.859375 C 2.242188 31.953125 2.472656 32 2.714844 32 L 24.984375 32 C 25.226562 32 25.460938 31.953125 25.683594 31.859375 C 25.910156 31.765625 26.105469 31.636719 26.277344 31.464844 C 26.449219 31.292969 26.582031 31.09375 26.671875 30.871094 C 26.765625 30.648438 26.8125 30.414062 26.8125 30.171875 C 26.8125 29.929688 26.765625 29.695312 26.671875 29.472656 C 26.582031 29.246094 26.449219 29.050781 26.277344 28.878906 C 26.105469 28.707031 25.910156 28.574219 25.683594 28.480469 C 25.460938 28.390625 25.226562 28.34375 24.984375 28.34375 Z M 24.984375 28.34375 " fill-opacity="1" fill-rule="nonzero"/><path fill="#5e6175" d="M 42.722656 99.59375 L 26.195312 99.59375 L 26.195312 82.25 L 27.699219 82.25 L 27.699219 98.089844 L 41.214844 98.089844 L 41.214844 82.25 L 42.722656 82.25 Z M 42.722656 99.59375 " fill-opacity="1" fill-rule="nonzero"/><path fill="#5e6175" d="M 85.914062 99.59375 L 41.214844 99.59375 L 41.214844 82.25 L 42.722656 82.25 L 42.722656 98.089844 L 85.914062 98.089844 Z M 85.914062 99.59375 " fill-opacity="1" fill-rule="nonzero"/><path fill="#5e6175" d="M 46.476562 98.84375 C 46.476562 99.140625 46.449219 99.433594 46.390625 99.722656 C 46.332031 100.011719 46.25 100.292969 46.136719 100.570312 C 46.023438 100.84375 45.882812 101.101562 45.71875 101.347656 C 45.554688 101.59375 45.367188 101.820312 45.15625 102.03125 C 44.949219 102.242188 44.71875 102.425781 44.472656 102.59375 C 44.226562 102.757812 43.96875 102.894531 43.695312 103.007812 C 43.421875 103.121094 43.140625 103.207031 42.847656 103.265625 C 42.558594 103.324219 42.265625 103.351562 41.96875 103.351562 C 41.671875 103.351562 41.378906 103.324219 41.089844 103.265625 C 40.796875 103.207031 40.515625 103.121094 40.242188 103.007812 C 39.96875 102.894531 39.710938 102.757812 39.464844 102.59375 C 39.21875 102.425781 38.988281 102.242188 38.78125 102.03125 C 38.570312 101.820312 38.382812 101.59375 38.21875 101.347656 C 38.054688 101.101562 37.914062 100.84375 37.800781 100.570312 C 37.6875 100.292969 37.605469 100.011719 37.546875 99.722656 C 37.488281 99.433594 37.460938 99.140625 37.460938 98.84375 C 37.460938 98.546875 37.488281 98.253906 37.546875 97.964844 C 37.605469 97.671875 37.6875 97.390625 37.800781 97.117188 C 37.914062 96.84375 38.054688 96.582031 38.21875 96.335938 C 38.382812 96.089844 38.570312 95.863281 38.78125 95.652344 C 38.988281 95.445312 39.21875 95.257812 39.464844 95.09375 C 39.710938 94.929688 39.96875 94.789062 40.242188 94.675781 C 40.515625 94.5625 40.796875 94.476562 41.089844 94.421875 C 41.378906 94.363281 41.671875 94.332031 41.96875 94.332031 C 42.265625 94.332031 42.558594 94.363281 42.847656 94.421875 C 43.140625 94.476562 43.421875 94.5625 43.695312 94.675781 C 43.96875 94.789062 44.226562 94.929688 44.472656 95.09375 C 44.71875 95.257812 44.949219 95.445312 45.15625 95.652344 C 45.367188 95.863281 45.554688 96.089844 45.71875 96.335938 C 45.882812 96.582031 46.023438 96.84375 46.136719 97.117188 C 46.25 97.390625 46.332031 97.671875 46.390625 97.964844 C 46.449219 98.253906 46.476562 98.546875 46.476562 98.84375 Z M 46.476562 98.84375 " fill-opacity="1" fill-rule="nonzero"/><path fill="#5e6175" d="M 90.425781 98.84375 C 90.425781 99.140625 90.398438 99.433594 90.339844 99.722656 C 90.28125 100.011719 90.195312 100.292969 90.082031 100.570312 C 89.96875 100.84375 89.832031 101.101562 89.664062 101.347656 C 89.5 101.59375 89.316406 101.820312 89.105469 102.03125 C 88.894531 102.242188 88.667969 102.425781 88.421875 102.59375 C 88.175781 102.757812 87.914062 102.894531 87.640625 103.007812 C 87.367188 103.121094 87.085938 103.207031 86.796875 103.265625 C 86.507812 103.324219 86.210938 103.351562 85.917969 103.351562 C 85.621094 103.351562 85.328125 103.324219 85.035156 103.265625 C 84.746094 103.207031 84.464844 103.121094 84.191406 103.007812 C 83.917969 102.894531 83.65625 102.757812 83.410156 102.59375 C 83.164062 102.425781 82.9375 102.242188 82.726562 102.03125 C 82.519531 101.820312 82.332031 101.59375 82.167969 101.347656 C 82.003906 101.101562 81.863281 100.84375 81.75 100.570312 C 81.636719 100.292969 81.550781 100.011719 81.492188 99.722656 C 81.4375 99.433594 81.40625 99.140625 81.40625 98.84375 C 81.40625 98.546875 81.4375 98.253906 81.492188 97.964844 C 81.550781 97.671875 81.636719 97.390625 81.75 97.117188 C 81.863281 96.84375 82.003906 96.582031 82.167969 96.335938 C 82.332031 96.089844 82.519531 95.863281 82.726562 95.652344 C 82.9375 95.445312 83.164062 95.257812 83.410156 95.09375 C 83.65625 94.929688 83.917969 94.789062 84.191406 94.675781 C 84.464844 94.5625 84.746094 94.476562 85.035156 94.421875 C 85.328125 94.363281 85.621094 94.332031 85.917969 94.332031 C 86.210938 94.332031 86.507812 94.363281 86.796875 94.421875 C 87.085938 94.476562 87.367188 94.5625 87.640625 94.675781 C 87.914062 94.789062 88.175781 94.929688 88.421875 95.09375 C 88.667969 95.257812 88.894531 95.445312 89.105469 95.652344 C 89.316406 95.863281 89.5 96.089844 89.664062 96.335938 C 89.832031 96.582031 89.96875 96.84375 90.082031 97.117188 C 90.195312 97.390625 90.28125 97.671875 90.339844 97.964844 C 90.398438 98.253906 90.425781 98.546875 90.425781 98.84375 Z M 90.425781 98.84375 " fill-opacity="1" fill-rule="nonzero"/><g clip-path="url(#38dc0e8e47)"><path fill="#5e6175" d="M 41.96875 104.105469 C 41.621094 104.105469 41.28125 104.074219 40.941406 104.007812 C 40.601562 103.9375 40.273438 103.839844 39.953125 103.707031 C 39.632812 103.574219 39.332031 103.410156 39.042969 103.21875 C 38.753906 103.027344 38.488281 102.808594 38.246094 102.566406 C 38 102.320312 37.78125 102.054688 37.589844 101.765625 C 37.398438 101.480469 37.234375 101.175781 37.101562 100.855469 C 36.96875 100.535156 36.871094 100.207031 36.804688 99.867188 C 36.734375 99.527344 36.703125 99.1875 36.703125 98.839844 C 36.703125 98.496094 36.734375 98.152344 36.804688 97.8125 C 36.871094 97.472656 36.96875 97.144531 37.101562 96.824219 C 37.234375 96.503906 37.398438 96.203125 37.589844 95.914062 C 37.78125 95.625 38 95.359375 38.246094 95.117188 C 38.488281 94.871094 38.753906 94.652344 39.042969 94.460938 C 39.332031 94.269531 39.632812 94.105469 39.953125 93.972656 C 40.273438 93.84375 40.601562 93.742188 40.941406 93.675781 C 41.28125 93.605469 41.621094 93.574219 41.96875 93.574219 C 42.316406 93.574219 42.65625 93.605469 42.996094 93.675781 C 43.335938 93.742188 43.664062 93.84375 43.984375 93.972656 C 44.304688 94.105469 44.605469 94.269531 44.894531 94.460938 C 45.183594 94.652344 45.449219 94.871094 45.691406 95.117188 C 45.9375 95.359375 46.15625 95.625 46.347656 95.914062 C 46.539062 96.203125 46.703125 96.503906 46.835938 96.824219 C 46.96875 97.144531 47.066406 97.472656 47.132812 97.8125 C 47.203125 98.152344 47.234375 98.496094 47.234375 98.839844 C 47.234375 99.1875 47.203125 99.527344 47.132812 99.867188 C 47.066406 100.207031 46.96875 100.535156 46.835938 100.855469 C 46.703125 101.175781 46.539062 101.480469 46.347656 101.765625 C 46.15625 102.054688 45.9375 102.320312 45.691406 102.566406 C 45.449219 102.808594 45.183594 103.027344 44.894531 103.21875 C 44.605469 103.410156 44.304688 103.574219 43.984375 103.707031 C 43.664062 103.839844 43.335938 103.9375 42.996094 104.007812 C 42.65625 104.074219 42.316406 104.105469 41.96875 104.105469 Z M 41.96875 95.078125 C 41.46875 95.078125 40.988281 95.171875 40.527344 95.363281 C 40.066406 95.554688 39.660156 95.828125 39.308594 96.179688 C 38.957031 96.53125 38.683594 96.941406 38.492188 97.402344 C 38.300781 97.863281 38.207031 98.339844 38.207031 98.839844 C 38.207031 99.339844 38.300781 99.820312 38.492188 100.28125 C 38.683594 100.742188 38.957031 101.148438 39.308594 101.5 C 39.660156 101.851562 40.066406 102.125 40.527344 102.316406 C 40.988281 102.507812 41.46875 102.601562 41.96875 102.601562 C 42.46875 102.601562 42.949219 102.507812 43.410156 102.316406 C 43.871094 102.125 44.277344 101.851562 44.628906 101.5 C 44.980469 101.148438 45.253906 100.742188 45.445312 100.28125 C 45.636719 99.820312 45.730469 99.339844 45.730469 98.839844 C 45.730469 98.34375 45.632812 97.863281 45.441406 97.402344 C 45.25 96.941406 44.980469 96.535156 44.625 96.183594 C 44.273438 95.832031 43.867188 95.5625 43.40625 95.371094 C 42.945312 95.179688 42.46875 95.085938 41.96875 95.085938 Z M 41.96875 95.078125 " fill-opacity="1" fill-rule="nonzero"/></g><g clip-path="url(#460e31671c)"><path fill="#5e6175" d="M 85.910156 104.105469 C 85.5625 104.105469 85.21875 104.074219 84.882812 104.007812 C 84.542969 103.9375 84.214844 103.839844 83.894531 103.707031 C 83.574219 103.574219 83.269531 103.410156 82.984375 103.21875 C 82.695312 103.027344 82.429688 102.808594 82.183594 102.566406 C 81.941406 102.320312 81.722656 102.054688 81.53125 101.765625 C 81.335938 101.480469 81.175781 101.175781 81.042969 100.855469 C 80.910156 100.535156 80.8125 100.207031 80.742188 99.867188 C 80.675781 99.527344 80.640625 99.1875 80.640625 98.839844 C 80.640625 98.496094 80.675781 98.152344 80.742188 97.8125 C 80.8125 97.472656 80.910156 97.144531 81.042969 96.824219 C 81.175781 96.503906 81.335938 96.203125 81.53125 95.914062 C 81.722656 95.625 81.941406 95.359375 82.183594 95.117188 C 82.429688 94.871094 82.695312 94.652344 82.984375 94.460938 C 83.269531 94.269531 83.574219 94.105469 83.894531 93.972656 C 84.214844 93.84375 84.542969 93.742188 84.882812 93.675781 C 85.21875 93.605469 85.5625 93.574219 85.910156 93.574219 C 86.253906 93.574219 86.597656 93.605469 86.9375 93.675781 C 87.277344 93.742188 87.605469 93.84375 87.925781 93.972656 C 88.242188 94.105469 88.546875 94.269531 88.835938 94.460938 C 89.121094 94.652344 89.390625 94.871094 89.632812 95.117188 C 89.878906 95.359375 90.097656 95.625 90.289062 95.914062 C 90.480469 96.203125 90.640625 96.503906 90.773438 96.824219 C 90.90625 97.144531 91.007812 97.472656 91.074219 97.8125 C 91.140625 98.152344 91.175781 98.496094 91.175781 98.839844 C 91.175781 99.1875 91.140625 99.527344 91.074219 99.867188 C 91.007812 100.207031 90.90625 100.535156 90.773438 100.855469 C 90.644531 101.175781 90.480469 101.480469 90.289062 101.765625 C 90.097656 102.054688 89.878906 102.320312 89.632812 102.566406 C 89.390625 102.808594 89.121094 103.027344 88.835938 103.21875 C 88.546875 103.410156 88.242188 103.574219 87.925781 103.707031 C 87.605469 103.839844 87.277344 103.9375 86.9375 104.007812 C 86.597656 104.074219 86.253906 104.105469 85.910156 104.105469 Z M 85.910156 95.078125 C 85.410156 95.078125 84.929688 95.171875 84.46875 95.363281 C 84.007812 95.554688 83.601562 95.828125 83.25 96.179688 C 82.894531 96.53125 82.625 96.941406 82.433594 97.402344 C 82.242188 97.863281 82.148438 98.339844 82.148438 98.839844 C 82.148438 99.339844 82.242188 99.820312 82.433594 100.28125 C 82.625 100.742188 82.894531 101.148438 83.25 101.5 C 83.601562 101.851562 84.007812 102.125 84.46875 102.316406 C 84.929688 102.507812 85.410156 102.601562 85.910156 102.601562 C 86.40625 102.601562 86.886719 102.507812 87.347656 102.316406 C 87.808594 102.125 88.214844 101.851562 88.570312 101.5 C 88.921875 101.148438 89.195312 100.742188 89.382812 100.28125 C 89.574219 99.820312 89.671875 99.339844 89.671875 98.839844 C 89.671875 98.34375 89.574219 97.863281 89.382812 97.402344 C 89.191406 96.941406 88.917969 96.535156 88.566406 96.183594 C 88.214844 95.832031 87.808594 95.5625 87.347656 95.371094 C 86.886719 95.179688 86.40625 95.085938 85.910156 95.085938 Z M 85.910156 95.078125 " fill-opacity="1" fill-rule="nonzero"/></g><path fill="#f5f5f5" d="M 43.578125 98.84375 C 43.578125 99.058594 43.539062 99.265625 43.457031 99.464844 C 43.371094 99.664062 43.253906 99.839844 43.101562 99.992188 C 42.949219 100.144531 42.773438 100.261719 42.574219 100.34375 C 42.375 100.425781 42.167969 100.46875 41.953125 100.46875 C 41.738281 100.46875 41.53125 100.425781 41.332031 100.34375 C 41.132812 100.261719 40.957031 100.144531 40.804688 99.992188 C 40.652344 99.839844 40.535156 99.664062 40.453125 99.464844 C 40.371094 99.265625 40.328125 99.058594 40.328125 98.84375 C 40.328125 98.628906 40.371094 98.421875 40.453125 98.222656 C 40.535156 98.023438 40.652344 97.847656 40.804688 97.695312 C 40.957031 97.542969 41.132812 97.421875 41.332031 97.339844 C 41.53125 97.257812 41.738281 97.21875 41.953125 97.21875 C 42.167969 97.21875 42.375 97.257812 42.574219 97.339844 C 42.773438 97.421875 42.949219 97.542969 43.101562 97.695312 C 43.253906 97.847656 43.371094 98.023438 43.457031 98.222656 C 43.539062 98.421875 43.578125 98.628906 43.578125 98.84375 Z M 43.578125 98.84375 " fill-opacity="1" fill-rule="nonzero"/><path fill="#f5f5f5" d="M 87.542969 98.84375 C 87.542969 99.058594 87.5 99.265625 87.417969 99.464844 C 87.335938 99.664062 87.21875 99.839844 87.066406 99.992188 C 86.914062 100.144531 86.738281 100.261719 86.539062 100.34375 C 86.339844 100.425781 86.132812 100.46875 85.917969 100.46875 C 85.699219 100.46875 85.492188 100.425781 85.292969 100.34375 C 85.09375 100.261719 84.917969 100.144531 84.765625 99.992188 C 84.613281 99.839844 84.496094 99.664062 84.414062 99.464844 C 84.332031 99.265625 84.292969 99.058594 84.292969 98.84375 C 84.292969 98.628906 84.332031 98.421875 84.414062 98.222656 C 84.496094 98.023438 84.613281 97.847656 84.765625 97.695312 C 84.917969 97.542969 85.09375 97.421875 85.292969 97.339844 C 85.492188 97.257812 85.699219 97.21875 85.917969 97.21875 C 86.132812 97.21875 86.339844 97.257812 86.539062 97.339844 C 86.738281 97.421875 86.914062 97.542969 87.066406 97.695312 C 87.21875 97.847656 87.335938 98.023438 87.417969 98.222656 C 87.5 98.421875 87.542969 98.628906 87.542969 98.84375 Z M 87.542969 98.84375 " fill-opacity="1" fill-rule="nonzero"/><path fill="#a9afc4" d="M 50.867188 49.121094 C 51.25 49.15625 51.609375 49.257812 51.953125 49.425781 C 52.296875 49.59375 52.597656 49.820312 52.855469 50.105469 C 53.113281 50.386719 53.3125 50.707031 53.453125 51.0625 C 53.589844 51.417969 53.660156 51.789062 53.660156 52.171875 L 53.660156 73.066406 C 53.648438 73.285156 53.601562 73.492188 53.515625 73.691406 C 53.429688 73.886719 53.308594 74.066406 53.15625 74.21875 C 53.003906 74.375 52.832031 74.496094 52.636719 74.585938 C 52.4375 74.675781 52.230469 74.726562 52.015625 74.742188 C 51.800781 74.753906 51.589844 74.730469 51.382812 74.664062 C 51.175781 74.601562 50.988281 74.5 50.816406 74.367188 C 50.648438 74.234375 50.507812 74.074219 50.398438 73.886719 C 50.285156 73.703125 50.210938 73.503906 50.175781 73.289062 L 47.558594 52.558594 C 47.527344 52.332031 47.523438 52.105469 47.546875 51.878906 C 47.566406 51.648438 47.613281 51.425781 47.6875 51.210938 C 47.757812 50.992188 47.855469 50.785156 47.972656 50.589844 C 48.089844 50.394531 48.230469 50.210938 48.386719 50.046875 C 48.546875 49.882812 48.722656 49.738281 48.914062 49.613281 C 49.105469 49.484375 49.308594 49.382812 49.523438 49.304688 C 49.738281 49.222656 49.957031 49.167969 50.183594 49.136719 C 50.410156 49.105469 50.640625 49.101562 50.867188 49.121094 Z M 50.867188 49.121094 " fill-opacity="1" fill-rule="nonzero"/><path fill="#a9afc4" d="M 68.660156 50.945312 C 69.066406 50.980469 69.449219 51.09375 69.8125 51.285156 C 70.171875 51.472656 70.484375 51.722656 70.746094 52.039062 C 71.007812 52.351562 71.199219 52.703125 71.320312 53.09375 C 71.441406 53.484375 71.484375 53.882812 71.449219 54.289062 L 69.722656 73.207031 C 69.71875 73.441406 69.667969 73.664062 69.574219 73.878906 C 69.480469 74.089844 69.351562 74.277344 69.179688 74.4375 C 69.011719 74.601562 68.820312 74.722656 68.605469 74.808594 C 68.386719 74.890625 68.160156 74.929688 67.929688 74.925781 C 67.695312 74.921875 67.472656 74.871094 67.261719 74.777344 C 67.046875 74.683594 66.859375 74.554688 66.699219 74.386719 C 66.539062 74.21875 66.414062 74.023438 66.332031 73.808594 C 66.246094 73.589844 66.207031 73.367188 66.210938 73.132812 L 65.316406 54.152344 C 65.304688 53.933594 65.320312 53.714844 65.355469 53.5 C 65.390625 53.28125 65.449219 53.074219 65.53125 52.871094 C 65.613281 52.664062 65.714844 52.472656 65.839844 52.289062 C 65.960938 52.109375 66.101562 51.941406 66.257812 51.789062 C 66.417969 51.636719 66.589844 51.503906 66.777344 51.390625 C 66.964844 51.273438 67.160156 51.179688 67.367188 51.109375 C 67.574219 51.035156 67.785156 50.984375 68.003906 50.957031 C 68.222656 50.929688 68.441406 50.925781 68.660156 50.945312 Z M 68.660156 50.945312 " fill-opacity="1" fill-rule="nonzero"/><g clip-path="url(#9c2004dd79)"><path fill="#5e6175" d="M 3.257812 102.601562 L 85.917969 102.601562 L 85.917969 104.105469 L 3.257812 104.105469 Z M 3.257812 102.601562 " fill-opacity="1" fill-rule="nonzero"/></g><path fill="#a9afc4" d="M 54.609375 36.078125 L 54.609375 34.574219 C 55.050781 34.605469 55.488281 34.578125 55.921875 34.492188 L 56.289062 35.949219 C 55.734375 36.070312 55.175781 36.117188 54.609375 36.078125 Z M 52.101562 36.078125 L 50.597656 36.078125 L 50.597656 34.574219 L 52.101562 34.574219 Z M 58.738281 34.25 L 57.5 33.394531 C 57.730469 33.066406 57.878906 32.703125 57.949219 32.308594 L 59.429688 32.5625 C 59.324219 33.175781 59.09375 33.738281 58.738281 34.25 Z M 57.59375 30.433594 C 57.386719 30.089844 57.117188 29.804688 56.785156 29.578125 L 57.632812 28.324219 C 58.148438 28.675781 58.566406 29.113281 58.886719 29.640625 Z M 54.835938 29.109375 L 53.332031 29.109375 L 53.332031 27.601562 L 54.835938 27.601562 Z M 50.820312 29.109375 C 50.273438 29.136719 49.730469 29.109375 49.1875 29.03125 L 49.457031 27.546875 C 49.910156 27.609375 50.363281 27.628906 50.820312 27.601562 Z M 46.605469 27.644531 C 46.1875 27.214844 45.863281 26.71875 45.628906 26.164062 L 47.015625 25.585938 C 47.175781 25.960938 47.402344 26.292969 47.6875 26.585938 Z M 46.855469 23.582031 L 45.390625 23.25 C 45.523438 22.660156 45.757812 22.117188 46.097656 21.621094 L 47.351562 22.46875 C 47.113281 22.804688 46.9375 23.171875 46.835938 23.570312 Z M 48.925781 21.234375 L 48.40625 19.820312 C 48.96875 19.613281 49.546875 19.515625 50.140625 19.527344 L 50.140625 21.03125 C 49.71875 21.015625 49.304688 21.078125 48.90625 21.21875 Z M 64.6875 21.03125 L 64.6875 19.527344 C 65.140625 19.558594 65.589844 19.539062 66.035156 19.46875 L 66.339844 20.945312 C 65.785156 21.03125 65.230469 21.058594 64.667969 21.019531 Z M 62.179688 21.03125 L 60.675781 21.03125 L 60.675781 19.527344 L 62.179688 19.527344 Z M 58.167969 21.03125 L 56.664062 21.03125 L 56.664062 19.527344 L 58.167969 19.527344 Z M 54.15625 21.03125 L 52.652344 21.03125 L 52.652344 19.527344 L 54.15625 19.527344 Z M 68.855469 19.335938 L 67.652344 18.425781 C 67.898438 18.109375 68.066406 17.757812 68.15625 17.367188 L 69.625 17.6875 C 69.488281 18.292969 69.230469 18.839844 68.855469 19.335938 Z M 68.207031 15.023438 C 68.207031 14.996094 68.089844 15.007812 69.710938 15.007812 Z M 68.207031 15.023438 " fill-opacity="1" fill-rule="nonzero"/><path fill="#a7adc2" d="M 68.949219 14.148438 C 68.949219 13.679688 69.039062 13.230469 69.21875 12.796875 C 69.398438 12.367188 69.65625 11.984375 69.988281 11.652344 C 70.320312 11.320312 70.703125 11.066406 71.136719 10.886719 C 71.570312 10.707031 72.019531 10.617188 72.488281 10.617188 L 75.214844 10.617188 C 75.214844 11.089844 75.125 11.539062 74.945312 11.972656 C 74.765625 12.410156 74.507812 12.792969 74.175781 13.125 C 73.84375 13.457031 73.460938 13.710938 73.027344 13.890625 C 72.59375 14.070312 72.140625 14.160156 71.671875 14.160156 Z M 68.949219 14.148438 " fill-opacity="1" fill-rule="nonzero"/><path fill="#a7adc2" d="M 68.949219 14.148438 C 68.945312 13.679688 68.855469 13.230469 68.675781 12.796875 C 68.496094 12.367188 68.238281 11.984375 67.90625 11.652344 C 67.574219 11.320312 67.191406 11.066406 66.757812 10.886719 C 66.324219 10.707031 65.875 10.617188 65.40625 10.617188 L 62.679688 10.617188 C 62.679688 11.089844 62.769531 11.539062 62.949219 11.972656 C 63.128906 12.410156 63.386719 12.792969 63.71875 13.125 C 64.050781 13.457031 64.433594 13.710938 64.867188 13.890625 C 65.300781 14.070312 65.753906 14.160156 66.222656 14.160156 Z M 68.949219 14.148438 " fill-opacity="1" fill-rule="nonzero"/><path fill="#5e6175" d="M 71.671875 14.902344 L 68.195312 14.902344 L 68.195312 14.148438 C 68.195312 13.867188 68.222656 13.589844 68.28125 13.3125 C 68.335938 13.039062 68.417969 12.769531 68.527344 12.511719 C 68.632812 12.25 68.765625 12.003906 68.921875 11.769531 C 69.082031 11.535156 69.257812 11.320312 69.457031 11.121094 C 69.65625 10.921875 69.875 10.746094 70.109375 10.589844 C 70.339844 10.433594 70.589844 10.300781 70.847656 10.195312 C 71.109375 10.085938 71.375 10.003906 71.652344 9.949219 C 71.929688 9.894531 72.207031 9.867188 72.488281 9.867188 L 75.96875 9.867188 L 75.96875 10.617188 C 75.964844 10.898438 75.9375 11.179688 75.882812 11.453125 C 75.828125 11.730469 75.746094 12 75.636719 12.257812 C 75.527344 12.519531 75.394531 12.765625 75.238281 13 C 75.082031 13.234375 74.902344 13.449219 74.703125 13.648438 C 74.503906 13.847656 74.289062 14.023438 74.054688 14.179688 C 73.820312 14.335938 73.570312 14.46875 73.3125 14.574219 C 73.050781 14.683594 72.785156 14.765625 72.507812 14.820312 C 72.230469 14.875 71.953125 14.902344 71.671875 14.902344 Z M 69.800781 13.398438 L 71.671875 13.398438 C 71.976562 13.398438 72.273438 13.351562 72.5625 13.257812 C 72.851562 13.160156 73.117188 13.019531 73.363281 12.839844 C 73.605469 12.65625 73.8125 12.4375 73.988281 12.1875 C 74.160156 11.9375 74.289062 11.664062 74.371094 11.371094 L 72.5 11.371094 C 72.195312 11.371094 71.898438 11.417969 71.609375 11.511719 C 71.320312 11.609375 71.054688 11.746094 70.8125 11.929688 C 70.566406 12.113281 70.359375 12.332031 70.1875 12.582031 C 70.015625 12.832031 69.886719 13.105469 69.800781 13.398438 Z M 69.800781 13.398438 " fill-opacity="1" fill-rule="nonzero"/><path fill="#5e6175" d="M 69.699219 14.902344 L 66.222656 14.902344 C 65.941406 14.902344 65.664062 14.875 65.386719 14.820312 C 65.109375 14.765625 64.84375 14.683594 64.582031 14.574219 C 64.324219 14.46875 64.074219 14.335938 63.839844 14.179688 C 63.605469 14.023438 63.390625 13.847656 63.191406 13.648438 C 62.992188 13.449219 62.8125 13.234375 62.65625 13 C 62.5 12.765625 62.367188 12.519531 62.257812 12.257812 C 62.152344 12 62.070312 11.730469 62.011719 11.453125 C 61.957031 11.179688 61.929688 10.898438 61.925781 10.617188 L 61.925781 9.867188 L 65.40625 9.867188 C 65.6875 9.867188 65.96875 9.894531 66.242188 9.949219 C 66.519531 10.003906 66.789062 10.085938 67.046875 10.195312 C 67.308594 10.300781 67.554688 10.433594 67.789062 10.589844 C 68.023438 10.75 68.242188 10.925781 68.441406 11.125 C 68.640625 11.324219 68.816406 11.542969 68.976562 11.777344 C 69.132812 12.011719 69.261719 12.257812 69.371094 12.519531 C 69.480469 12.777344 69.5625 13.046875 69.617188 13.324219 C 69.671875 13.597656 69.699219 13.878906 69.699219 14.160156 Z M 63.535156 11.371094 C 63.617188 11.664062 63.746094 11.9375 63.917969 12.1875 C 64.089844 12.4375 64.296875 12.65625 64.539062 12.839844 C 64.78125 13.023438 65.046875 13.164062 65.335938 13.261719 C 65.621094 13.359375 65.917969 13.40625 66.222656 13.40625 L 68.101562 13.40625 C 68.019531 13.113281 67.890625 12.839844 67.71875 12.589844 C 67.546875 12.335938 67.339844 12.121094 67.097656 11.9375 C 66.851562 11.75 66.585938 11.613281 66.296875 11.515625 C 66.007812 11.417969 65.710938 11.371094 65.40625 11.371094 Z M 63.535156 11.371094 " fill-opacity="1" fill-rule="nonzero"/><path fill="#a7adc2" d="M 87.664062 15.921875 C 87.332031 15.589844 87.074219 15.203125 86.894531 14.769531 C 86.714844 14.335938 86.625 13.882812 86.625 13.414062 C 86.625 12.941406 86.714844 12.488281 86.894531 12.054688 C 87.074219 11.621094 87.332031 11.238281 87.664062 10.90625 L 89.59375 8.976562 C 89.925781 9.308594 90.183594 9.691406 90.363281 10.125 C 90.542969 10.5625 90.632812 11.015625 90.632812 11.484375 C 90.632812 11.953125 90.542969 12.40625 90.363281 12.839844 C 90.183594 13.277344 89.925781 13.660156 89.59375 13.992188 Z M 87.664062 15.921875 " fill-opacity="1" fill-rule="nonzero"/><path fill="#a7adc2" d="M 87.664062 15.921875 C 87.332031 15.585938 86.949219 15.332031 86.515625 15.148438 C 86.078125 14.96875 85.628906 14.878906 85.15625 14.878906 C 84.6875 14.878906 84.234375 14.96875 83.800781 15.148438 C 83.363281 15.332031 82.980469 15.585938 82.648438 15.921875 L 80.722656 17.847656 C 81.054688 18.179688 81.4375 18.4375 81.871094 18.617188 C 82.308594 18.796875 82.761719 18.890625 83.230469 18.890625 C 83.699219 18.890625 84.152344 18.796875 84.589844 18.617188 C 85.023438 18.4375 85.40625 18.179688 85.738281 17.847656 Z M 87.664062 15.921875 " fill-opacity="1" fill-rule="nonzero"/><g clip-path="url(#4d72cddbd0)"><path fill="#5e6175" d="M 87.664062 16.984375 L 87.132812 16.453125 C 86.933594 16.253906 86.753906 16.035156 86.597656 15.800781 C 86.441406 15.566406 86.308594 15.320312 86.203125 15.058594 C 86.09375 14.800781 86.011719 14.53125 85.957031 14.253906 C 85.902344 13.976562 85.875 13.699219 85.875 13.417969 C 85.875 13.132812 85.902344 12.855469 85.957031 12.578125 C 86.011719 12.300781 86.09375 12.035156 86.203125 11.773438 C 86.308594 11.511719 86.441406 11.265625 86.597656 11.03125 C 86.753906 10.796875 86.933594 10.578125 87.132812 10.378906 L 89.59375 7.921875 L 90.125 8.453125 C 90.324219 8.652344 90.503906 8.867188 90.660156 9.101562 C 90.816406 9.335938 90.949219 9.585938 91.054688 9.84375 C 91.164062 10.105469 91.246094 10.375 91.300781 10.652344 C 91.355469 10.925781 91.382812 11.207031 91.382812 11.488281 C 91.382812 11.769531 91.355469 12.050781 91.300781 12.328125 C 91.246094 12.605469 91.164062 12.871094 91.054688 13.132812 C 90.949219 13.394531 90.816406 13.640625 90.660156 13.875 C 90.503906 14.109375 90.324219 14.328125 90.125 14.527344 Z M 89.527344 10.117188 L 88.203125 11.4375 C 87.988281 11.652344 87.8125 11.898438 87.675781 12.171875 C 87.542969 12.441406 87.453125 12.730469 87.414062 13.03125 C 87.371094 13.332031 87.378906 13.632812 87.433594 13.933594 C 87.492188 14.230469 87.59375 14.515625 87.746094 14.78125 L 89.066406 13.457031 C 89.28125 13.242188 89.457031 13 89.59375 12.726562 C 89.726562 12.453125 89.816406 12.167969 89.859375 11.863281 C 89.898438 11.5625 89.890625 11.261719 89.835938 10.964844 C 89.777344 10.664062 89.675781 10.382812 89.527344 10.117188 Z M 89.527344 10.117188 " fill-opacity="1" fill-rule="nonzero"/></g><path fill="#5e6175" d="M 80.203125 18.378906 L 79.671875 17.847656 L 82.128906 15.390625 C 82.328125 15.191406 82.546875 15.011719 82.78125 14.855469 C 83.015625 14.699219 83.261719 14.566406 83.523438 14.457031 C 83.785156 14.347656 84.050781 14.269531 84.328125 14.214844 C 84.605469 14.15625 84.882812 14.128906 85.167969 14.128906 C 85.449219 14.128906 85.726562 14.15625 86.003906 14.214844 C 86.28125 14.269531 86.550781 14.347656 86.808594 14.457031 C 87.070312 14.566406 87.320312 14.699219 87.554688 14.855469 C 87.789062 15.011719 88.003906 15.191406 88.203125 15.390625 L 88.734375 15.921875 L 86.273438 18.378906 C 86.074219 18.578125 85.859375 18.757812 85.625 18.914062 C 85.390625 19.070312 85.144531 19.203125 84.882812 19.3125 C 84.621094 19.417969 84.355469 19.5 84.078125 19.554688 C 83.800781 19.613281 83.519531 19.640625 83.238281 19.640625 C 82.957031 19.640625 82.679688 19.613281 82.402344 19.554688 C 82.125 19.5 81.855469 19.417969 81.59375 19.3125 C 81.335938 19.203125 81.085938 19.070312 80.851562 18.914062 C 80.617188 18.757812 80.402344 18.578125 80.203125 18.378906 Z M 81.871094 17.777344 C 82.136719 17.925781 82.417969 18.027344 82.71875 18.085938 C 83.015625 18.144531 83.316406 18.148438 83.621094 18.109375 C 83.921875 18.066406 84.207031 17.976562 84.480469 17.84375 C 84.753906 17.707031 84.996094 17.53125 85.210938 17.316406 L 86.535156 15.992188 C 86.269531 15.84375 85.984375 15.742188 85.6875 15.683594 C 85.386719 15.628906 85.085938 15.621094 84.785156 15.660156 C 84.484375 15.703125 84.199219 15.792969 83.925781 15.925781 C 83.652344 16.0625 83.40625 16.238281 83.191406 16.453125 Z M 81.871094 17.777344 " fill-opacity="1" fill-rule="nonzero"/><path fill="#a9afc4" d="M 96.492188 39.378906 L 96.457031 37.875 C 96.867188 37.867188 97.261719 37.785156 97.640625 37.625 L 98.234375 39.007812 C 97.675781 39.246094 97.09375 39.367188 96.492188 39.378906 Z M 72.976562 38.628906 L 71.472656 38.628906 L 71.472656 37.125 L 72.976562 37.125 Z M 93.683594 38.519531 C 93.191406 38.171875 92.78125 37.742188 92.453125 37.234375 L 93.707031 36.417969 C 93.929688 36.761719 94.210938 37.054688 94.542969 37.292969 Z M 100.433594 37.058594 L 99.132812 36.304688 C 99.339844 35.953125 99.472656 35.574219 99.53125 35.167969 L 101.019531 35.378906 C 100.933594 35.976562 100.738281 36.535156 100.433594 37.058594 Z M 72.976562 34.617188 L 71.472656 34.617188 C 71.4375 34.050781 71.484375 33.492188 71.613281 32.941406 L 73.070312 33.3125 C 72.976562 33.742188 72.945312 34.175781 72.976562 34.617188 Z M 93.210938 34.4375 L 91.707031 34.4375 C 91.734375 34.007812 91.691406 33.585938 91.570312 33.171875 L 93.011719 32.730469 C 93.175781 33.292969 93.242188 33.863281 93.210938 34.445312 Z M 101.066406 32.757812 L 99.5625 32.757812 L 99.5625 31.253906 L 101.066406 31.253906 Z M 74.152344 31.628906 L 73.207031 30.460938 C 73.675781 30.082031 74.199219 29.800781 74.777344 29.625 L 75.21875 31.0625 C 74.828125 31.183594 74.472656 31.371094 74.152344 31.628906 Z M 90.417969 31.542969 C 90.089844 31.296875 89.726562 31.125 89.328125 31.023438 L 89.707031 29.566406 C 90.292969 29.714844 90.828125 29.972656 91.3125 30.335938 Z M 87.019531 30.933594 L 85.515625 30.933594 L 85.515625 29.429688 L 87.019531 29.429688 Z M 83.007812 30.933594 L 81.503906 30.933594 L 81.503906 29.429688 L 83.007812 29.429688 Z M 78.996094 30.933594 L 77.488281 30.933594 L 77.488281 29.429688 L 78.996094 29.429688 Z M 101.066406 28.757812 L 99.558594 28.757812 L 99.558594 27.25 L 101.066406 27.25 Z M 101.066406 24.742188 L 99.558594 24.742188 L 99.558594 23.238281 L 101.066406 23.238281 Z M 99.410156 20.980469 C 99.285156 20.589844 99.09375 20.238281 98.832031 19.921875 L 99.988281 18.964844 C 100.375 19.429688 100.660156 19.949219 100.84375 20.527344 Z M 97.152344 18.863281 C 96.714844 18.777344 96.277344 18.746094 95.832031 18.773438 L 95.832031 17.269531 C 96.398438 17.238281 96.957031 17.28125 97.507812 17.402344 Z M 93.324219 18.773438 L 91.820312 18.773438 L 91.820312 17.269531 L 93.324219 17.269531 Z M 93.324219 18.773438 " fill-opacity="1" fill-rule="nonzero"/><path fill="#5e6175" d="M 18.640625 80.78125 C 18.453125 80.78125 18.269531 80.761719 18.085938 80.714844 C 17.902344 80.667969 17.730469 80.601562 17.5625 80.511719 C 17.398438 80.425781 17.246094 80.316406 17.105469 80.191406 C 16.964844 80.066406 16.84375 79.925781 16.738281 79.769531 C 16.636719 79.613281 16.550781 79.445312 16.488281 79.269531 C 16.421875 79.09375 16.382812 78.910156 16.363281 78.722656 C 16.34375 78.535156 16.347656 78.351562 16.375 78.164062 C 16.402344 77.976562 16.453125 77.796875 16.523438 77.625 C 16.59375 77.449219 16.6875 77.289062 16.796875 77.136719 C 16.910156 76.984375 17.035156 76.847656 17.179688 76.730469 C 17.324219 76.609375 17.484375 76.507812 17.652344 76.425781 C 17.820312 76.347656 18 76.285156 18.183594 76.25 C 18.367188 76.210938 18.554688 76.195312 18.742188 76.207031 C 18.929688 76.214844 19.113281 76.246094 19.292969 76.296875 C 19.472656 76.351562 19.644531 76.425781 19.804688 76.519531 C 19.96875 76.617188 20.117188 76.730469 20.25 76.863281 C 20.582031 77.1875 20.792969 77.578125 20.886719 78.035156 C 20.980469 78.488281 20.941406 78.933594 20.765625 79.363281 C 20.585938 79.792969 20.304688 80.136719 19.917969 80.398438 C 19.53125 80.65625 19.105469 80.785156 18.640625 80.78125 Z M 18.640625 77.710938 C 18.425781 77.710938 18.238281 77.789062 18.085938 77.941406 C 17.933594 78.09375 17.855469 78.28125 17.855469 78.496094 C 17.859375 78.714844 17.933594 78.898438 18.089844 79.054688 C 18.242188 79.207031 18.429688 79.28125 18.648438 79.28125 C 18.863281 79.277344 19.050781 79.199219 19.203125 79.046875 C 19.355469 78.890625 19.429688 78.707031 19.425781 78.488281 C 19.425781 78.273438 19.347656 78.089844 19.195312 77.9375 C 19.042969 77.785156 18.859375 77.710938 18.640625 77.710938 Z M 18.640625 77.710938 " fill-opacity="1" fill-rule="nonzero"/><path fill="#5e6175" d="M 10.679688 92.675781 C 10.269531 92.675781 9.871094 92.597656 9.488281 92.4375 C 9.105469 92.28125 8.769531 92.054688 8.476562 91.761719 C 8.183594 91.46875 7.960938 91.132812 7.800781 90.753906 C 7.640625 90.371094 7.5625 89.972656 7.5625 89.558594 C 7.5625 89.148438 7.640625 88.75 7.796875 88.367188 C 7.953125 87.984375 8.175781 87.644531 8.46875 87.351562 C 8.757812 87.058594 9.09375 86.832031 9.476562 86.671875 C 9.859375 86.515625 10.253906 86.433594 10.667969 86.429688 C 11.082031 86.429688 11.480469 86.503906 11.863281 86.660156 C 12.246094 86.816406 12.582031 87.039062 12.878906 87.332031 C 13.171875 87.621094 13.398438 87.957031 13.558594 88.335938 C 13.722656 88.71875 13.804688 89.113281 13.804688 89.527344 C 13.808594 89.945312 13.730469 90.34375 13.574219 90.730469 C 13.417969 91.117188 13.191406 91.457031 12.898438 91.75 C 12.605469 92.046875 12.265625 92.273438 11.882812 92.433594 C 11.496094 92.59375 11.097656 92.675781 10.679688 92.675781 Z M 10.679688 87.933594 C 10.464844 87.9375 10.261719 87.976562 10.0625 88.058594 C 9.863281 88.140625 9.6875 88.261719 9.539062 88.414062 C 9.386719 88.566406 9.269531 88.738281 9.1875 88.9375 C 9.105469 89.136719 9.066406 89.34375 9.066406 89.558594 C 9.066406 89.773438 9.109375 89.980469 9.191406 90.179688 C 9.273438 90.375 9.394531 90.550781 9.546875 90.703125 C 9.699219 90.855469 9.875 90.96875 10.074219 91.050781 C 10.273438 91.132812 10.476562 91.171875 10.691406 91.171875 C 10.90625 91.167969 11.113281 91.128906 11.3125 91.042969 C 11.511719 90.960938 11.683594 90.84375 11.835938 90.6875 C 11.988281 90.535156 12.101562 90.359375 12.183594 90.160156 C 12.265625 89.960938 12.304688 89.753906 12.300781 89.539062 C 12.300781 89.328125 12.257812 89.121094 12.175781 88.925781 C 12.089844 88.730469 11.972656 88.554688 11.820312 88.40625 C 11.671875 88.253906 11.496094 88.136719 11.296875 88.058594 C 11.101562 87.976562 10.894531 87.933594 10.679688 87.933594 Z M 10.679688 87.933594 " fill-opacity="1" fill-rule="nonzero"/><path fill="#f5f5f5" d="M 111.238281 75.605469 C 111.238281 76.570312 111.144531 77.527344 110.957031 78.476562 C 110.769531 79.421875 110.488281 80.34375 110.121094 81.234375 C 109.75 82.128906 109.296875 82.976562 108.757812 83.78125 C 108.222656 84.582031 107.613281 85.328125 106.929688 86.011719 C 106.246094 86.695312 105.503906 87.304688 104.699219 87.839844 C 103.894531 88.378906 103.046875 88.832031 102.15625 89.199219 C 101.261719 89.570312 100.339844 89.847656 99.394531 90.039062 C 98.445312 90.226562 97.488281 90.320312 96.523438 90.320312 C 95.554688 90.320312 94.597656 90.226562 93.652344 90.039062 C 92.703125 89.847656 91.785156 89.570312 90.890625 89.199219 C 90 88.832031 89.148438 88.378906 88.347656 87.839844 C 87.542969 87.304688 86.800781 86.695312 86.117188 86.011719 C 85.433594 85.328125 84.824219 84.582031 84.285156 83.78125 C 83.75 82.976562 83.296875 82.128906 82.925781 81.234375 C 82.554688 80.34375 82.277344 79.421875 82.089844 78.476562 C 81.898438 77.527344 81.804688 76.570312 81.804688 75.605469 C 81.804688 74.636719 81.898438 73.679688 82.089844 72.734375 C 82.277344 71.785156 82.554688 70.863281 82.925781 69.972656 C 83.296875 69.078125 83.75 68.230469 84.285156 67.425781 C 84.824219 66.625 85.433594 65.878906 86.117188 65.195312 C 86.800781 64.515625 87.542969 63.902344 88.347656 63.367188 C 89.148438 62.828125 90 62.375 90.890625 62.007812 C 91.785156 61.636719 92.703125 61.359375 93.652344 61.167969 C 94.597656 60.980469 95.554688 60.886719 96.523438 60.886719 C 97.488281 60.886719 98.445312 60.980469 99.394531 61.167969 C 100.339844 61.359375 101.261719 61.636719 102.15625 62.007812 C 103.046875 62.375 103.894531 62.828125 104.699219 63.367188 C 105.503906 63.902344 106.246094 64.515625 106.929688 65.195312 C 107.613281 65.878906 108.222656 66.625 108.757812 67.425781 C 109.296875 68.230469 109.75 69.078125 110.121094 69.972656 C 110.488281 70.863281 110.769531 71.785156 110.957031 72.734375 C 111.144531 73.679688 111.238281 74.636719 111.238281 75.605469 Z M 111.238281 75.605469 " fill-opacity="1" fill-rule="nonzero"/><path fill="#5e6175" d="M 96.523438 91.074219 C 95.507812 91.074219 94.5 90.976562 93.503906 90.777344 C 92.507812 90.582031 91.539062 90.289062 90.601562 89.898438 C 89.664062 89.511719 88.769531 89.035156 87.925781 88.46875 C 87.082031 87.90625 86.300781 87.261719 85.582031 86.546875 C 84.863281 85.828125 84.222656 85.046875 83.65625 84.199219 C 83.09375 83.355469 82.617188 82.464844 82.226562 81.527344 C 81.835938 80.585938 81.542969 79.621094 81.347656 78.625 C 81.148438 77.625 81.046875 76.621094 81.046875 75.605469 C 81.046875 74.589844 81.148438 73.582031 81.34375 72.585938 C 81.542969 71.589844 81.835938 70.621094 82.226562 69.683594 C 82.613281 68.746094 83.089844 67.851562 83.65625 67.007812 C 84.21875 66.164062 84.863281 65.382812 85.582031 64.664062 C 86.296875 63.945312 87.082031 63.304688 87.925781 62.738281 C 88.769531 62.175781 89.660156 61.699219 90.601562 61.308594 C 91.539062 60.921875 92.507812 60.628906 93.503906 60.429688 C 94.5 60.230469 95.503906 60.132812 96.519531 60.132812 C 97.539062 60.132812 98.542969 60.230469 99.539062 60.429688 C 100.535156 60.628906 101.503906 60.921875 102.441406 61.308594 C 103.382812 61.699219 104.273438 62.175781 105.117188 62.738281 C 105.960938 63.304688 106.742188 63.945312 107.460938 64.664062 C 108.179688 65.382812 108.820312 66.164062 109.386719 67.007812 C 109.949219 67.855469 110.425781 68.746094 110.816406 69.683594 C 111.203125 70.625 111.496094 71.589844 111.695312 72.585938 C 111.894531 73.582031 111.992188 74.589844 111.992188 75.605469 C 111.992188 76.621094 111.890625 77.628906 111.691406 78.621094 C 111.492188 79.617188 111.199219 80.585938 110.808594 81.523438 C 110.421875 82.460938 109.945312 83.351562 109.378906 84.195312 C 108.816406 85.039062 108.175781 85.820312 107.457031 86.539062 C 106.738281 87.257812 105.957031 87.898438 105.113281 88.464844 C 104.269531 89.027344 103.378906 89.503906 102.441406 89.894531 C 101.503906 90.28125 100.535156 90.578125 99.539062 90.773438 C 98.542969 90.972656 97.539062 91.074219 96.523438 91.074219 Z M 96.523438 61.640625 C 95.605469 61.640625 94.699219 61.726562 93.796875 61.90625 C 92.898438 62.085938 92.023438 62.351562 91.175781 62.703125 C 90.332031 63.050781 89.523438 63.480469 88.761719 63.992188 C 88 64.5 87.292969 65.078125 86.644531 65.726562 C 85.996094 66.375 85.417969 67.082031 84.910156 67.84375 C 84.398438 68.605469 83.96875 69.414062 83.617188 70.257812 C 83.265625 71.105469 83 71.980469 82.820312 72.878906 C 82.644531 73.777344 82.554688 74.6875 82.554688 75.605469 C 82.554688 76.523438 82.640625 77.429688 82.820312 78.328125 C 83 79.230469 83.265625 80.101562 83.617188 80.949219 C 83.96875 81.796875 84.398438 82.601562 84.90625 83.363281 C 85.414062 84.128906 85.996094 84.832031 86.644531 85.480469 C 87.292969 86.128906 87.996094 86.710938 88.757812 87.21875 C 89.523438 87.726562 90.328125 88.160156 91.175781 88.507812 C 92.023438 88.859375 92.894531 89.125 93.792969 89.304688 C 94.695312 89.484375 95.601562 89.574219 96.519531 89.574219 C 97.4375 89.574219 98.34375 89.484375 99.246094 89.304688 C 100.144531 89.125 101.015625 88.859375 101.863281 88.511719 C 102.710938 88.160156 103.515625 87.730469 104.28125 87.21875 C 105.042969 86.710938 105.746094 86.132812 106.394531 85.484375 C 107.042969 84.835938 107.625 84.128906 108.132812 83.367188 C 108.644531 82.605469 109.074219 81.796875 109.425781 80.953125 C 109.773438 80.105469 110.039062 79.230469 110.21875 78.332031 C 110.398438 77.429688 110.488281 76.523438 110.488281 75.605469 C 110.488281 74.6875 110.394531 73.78125 110.214844 72.882812 C 110.035156 71.984375 109.773438 71.109375 109.421875 70.265625 C 109.070312 69.417969 108.640625 68.613281 108.128906 67.851562 C 107.621094 67.089844 107.042969 66.382812 106.394531 65.734375 C 105.746094 65.085938 105.039062 64.507812 104.277344 64 C 103.515625 63.488281 102.710938 63.058594 101.863281 62.707031 C 101.019531 62.355469 100.144531 62.089844 99.246094 61.910156 C 98.347656 61.730469 97.441406 61.640625 96.523438 61.640625 Z M 96.523438 61.640625 " fill-opacity="1" fill-rule="nonzero"/><path fill="#832729" d="M 88.632812 79.402344 L 100.335938 67.695312 L 104.300781 71.660156 L 92.597656 83.363281 Z M 88.632812 79.402344 " fill-opacity="1" fill-rule="nonzero"/><path fill="#832729" d="M 88.632812 71.660156 L 92.597656 67.695312 L 104.304688 79.402344 L 100.339844 83.363281 Z M 88.632812 71.660156 " fill-opacity="1" fill-rule="nonzero"/><path fill="#f5f5f5" d="M 27.828125 98.84375 C 27.828125 99.058594 27.789062 99.265625 27.703125 99.464844 C 27.621094 99.664062 27.503906 99.839844 27.351562 99.992188 C 27.199219 100.144531 27.023438 100.261719 26.824219 100.34375 C 26.625 100.425781 26.417969 100.46875 26.203125 100.46875 C 25.988281 100.46875 25.78125 100.425781 25.582031 100.34375 C 25.382812 100.261719 25.207031 100.144531 25.054688 99.992188 C 24.902344 99.839844 24.785156 99.664062 24.703125 99.464844 C 24.621094 99.265625 24.578125 99.058594 24.578125 98.84375 C 24.578125 98.628906 24.621094 98.421875 24.703125 98.222656 C 24.785156 98.023438 24.902344 97.847656 25.054688 97.695312 C 25.207031 97.542969 25.382812 97.421875 25.582031 97.339844 C 25.78125 97.257812 25.988281 97.21875 26.203125 97.21875 C 26.417969 97.21875 26.625 97.257812 26.824219 97.339844 C 27.023438 97.421875 27.199219 97.542969 27.351562 97.695312 C 27.503906 97.847656 27.621094 98.023438 27.703125 98.222656 C 27.789062 98.421875 27.828125 98.628906 27.828125 98.84375 Z M 27.828125 98.84375 " fill-opacity="1" fill-rule="nonzero"/><path fill="#f5f5f5" d="M 72.226562 98.84375 C 72.226562 99.058594 72.1875 99.265625 72.105469 99.464844 C 72.023438 99.664062 71.902344 99.839844 71.75 99.992188 C 71.597656 100.144531 71.421875 100.261719 71.222656 100.34375 C 71.027344 100.425781 70.816406 100.46875 70.601562 100.46875 C 70.386719 100.46875 70.179688 100.425781 69.980469 100.34375 C 69.78125 100.261719 69.605469 100.144531 69.453125 99.992188 C 69.300781 99.839844 69.183594 99.664062 69.101562 99.464844 C 69.019531 99.265625 68.976562 99.058594 68.976562 98.84375 C 68.976562 98.628906 69.019531 98.421875 69.101562 98.222656 C 69.183594 98.023438 69.300781 97.847656 69.453125 97.695312 C 69.605469 97.542969 69.78125 97.421875 69.980469 97.339844 C 70.179688 97.257812 70.386719 97.21875 70.601562 97.21875 C 70.816406 97.21875 71.027344 97.257812 71.222656 97.339844 C 71.421875 97.421875 71.597656 97.542969 71.75 97.695312 C 71.902344 97.847656 72.023438 98.023438 72.105469 98.222656 C 72.1875 98.421875 72.226562 98.628906 72.226562 98.84375 Z M 72.226562 98.84375 " fill-opacity="1" fill-rule="nonzero"/></svg>